# Blender 4.1.1
# www.blender.org
mtllib WallD.mtl
o WallD.001
v -4.604875 0.010000 -9.614213
v 4.756581 0.010000 -9.614213
v -4.604875 7.659001 -9.614213
v 4.756581 7.659001 -9.614213
v -4.604875 0.621920 -9.614213
v 4.756581 0.621920 -9.614213
v 4.756581 0.431001 -9.614213
v -4.604875 0.431001 -9.614213
v -4.604875 2.521932 -9.614213
v 4.756581 2.521932 -9.614213
v -1.403497 0.010000 -9.614213
v -1.403497 7.659001 -9.614213
v -1.403497 0.621920 -9.614213
v -1.403497 0.431001 -9.614213
v -1.403497 2.521932 -9.614213
v -3.257797 0.010000 -9.614213
v -3.257797 7.659001 -9.614213
v -3.257797 0.621920 -9.614213
v -3.257797 0.431001 -9.614213
v -3.257797 2.521932 -9.614213
v -4.604875 3.342835 -9.614213
v 4.756581 3.342835 -9.614213
v -1.403497 3.342835 -9.614213
v -3.257797 3.342835 -9.614213
v -4.604875 4.465038 -9.614213
v 4.756581 4.465038 -9.614213
v -1.403497 4.465038 -9.614213
v -3.257797 4.465038 -9.614213
v 4.756581 3.014474 -9.614213
v -1.403497 3.014474 -9.614213
v -3.257797 3.014474 -9.614213
v -4.604875 3.014474 -9.614213
v 4.756581 4.240598 -9.614213
v -1.403497 4.240598 -9.614213
v -3.257797 4.240598 -9.614213
v -4.604875 4.240598 -9.614213
v -4.604875 5.709852 -9.614213
v 4.756581 5.709852 -9.614213
v -1.403497 5.709852 -9.614213
v -3.257797 5.709852 -9.614213
v 4.363923 0.010000 -9.614213
v 4.363923 7.659001 -9.614213
v 4.363923 0.621920 -9.614213
v 4.363923 0.431001 -9.614213
v 4.363923 2.521932 -9.614213
v 4.363923 3.342835 -9.614213
v 4.363923 4.465038 -9.614213
v 4.363923 3.014474 -9.614213
v 4.363923 4.240598 -9.614213
v 4.363923 5.709852 -9.614213
v -4.604875 5.904767 -9.614213
v 4.756581 5.904767 -9.614213
v -1.403497 5.904767 -9.614213
v -3.257797 5.904767 -9.614213
v 4.363923 5.904767 -9.614213
v -0.964882 0.010000 -9.614213
v -0.964882 7.659001 -9.614213
v -0.964882 0.621920 -9.614213
v -0.964882 0.431001 -9.614213
v -0.964882 2.521932 -9.614213
v -0.964882 3.342835 -9.614213
v -0.964882 4.465038 -9.614213
v -0.964882 3.014474 -9.614213
v -0.964882 4.240598 -9.614213
v -0.964882 5.709852 -9.614213
v -0.964882 5.904767 -9.614213
v -4.604875 6.185444 -9.614213
v 4.756581 6.185444 -9.614213
v -1.403497 6.185444 -9.614213
v -3.257797 6.185444 -9.614213
v 4.363923 6.185444 -9.614213
v -0.964882 6.185444 -9.614213
v -3.364156 0.010000 -9.614213
v -3.364156 7.659001 -9.614213
v -3.364156 0.621920 -9.614213
v -3.364156 0.431001 -9.614213
v -3.364156 2.521932 -9.614213
v -3.364156 3.342835 -9.614213
v -3.364156 4.465038 -9.614213
v -3.364156 3.014474 -9.614213
v -3.364156 4.240598 -9.614213
v -3.364156 5.709852 -9.614213
v -3.364156 5.904767 -9.614213
v -3.364156 6.185444 -9.614213
v 4.756581 4.907833 -9.614213
v -1.403497 4.907833 -9.614213
v -3.257797 4.907833 -9.614213
v -4.604875 4.907833 -9.614213
v 4.363923 4.907833 -9.614213
v -0.964882 4.907833 -9.614213
v -3.364156 4.907833 -9.614213
v 3.804750 0.010000 -9.614213
v 3.804750 7.659001 -9.614213
v 3.804750 0.621920 -9.614213
v 3.804750 0.431001 -9.614213
v 3.804750 2.521932 -9.614213
v 3.804750 3.342835 -9.614213
v 3.804750 4.465038 -9.614213
v 3.804750 3.014474 -9.614213
v 3.804750 4.240598 -9.614213
v 3.804750 5.709852 -9.614213
v 3.804750 5.904767 -9.614213
v 3.804750 6.185444 -9.614213
v 3.804750 4.907833 -9.614213
v 0.122536 0.010000 -9.614213
v 0.122536 7.659001 -9.614213
v 0.122536 0.621920 -9.614213
v 0.122536 0.431001 -9.614213
v 0.122536 2.521932 -9.614213
v 0.122536 3.342835 -9.614213
v 0.122536 4.465038 -9.614213
v 0.122536 3.014474 -9.614213
v 0.122536 4.240598 -9.614213
v 0.122536 5.709852 -9.614213
v 0.122536 5.904767 -9.614213
v 0.122536 6.185444 -9.614213
v 0.122536 4.907833 -9.614213
v 4.756581 2.179930 -9.614213
v -4.604875 2.117609 -9.614213
v -1.403497 2.179930 -9.614213
v -3.257797 2.179930 -9.614213
v 4.363923 2.179930 -9.614213
v -0.964882 2.179930 -9.614213
v -3.364156 2.179930 -9.614213
v 3.804750 2.179930 -9.614213
v 0.122536 2.179930 -9.614213
v 4.756581 0.119460 -9.614213
v -4.604875 0.119460 -9.614213
v -1.403497 0.119460 -9.614213
v -3.257797 0.119460 -9.614213
v 4.363923 0.119460 -9.614213
v -0.964882 0.119460 -9.614213
v -3.364156 0.119460 -9.614213
v 3.804750 0.119460 -9.614213
v 0.122536 0.119460 -9.614213
v 4.756581 2.124601 -9.614213
v -1.403497 2.124601 -9.614213
v -3.257797 2.124601 -9.614213
v 4.363923 2.124601 -9.614213
v -0.964882 2.124601 -9.614213
v -3.364156 2.124601 -9.614213
v 3.804750 2.124601 -9.614213
v 0.122536 2.124601 -9.614213
v -4.604875 2.064494 -9.614213
v -1.459337 0.010000 -9.614213
v -1.459337 7.659001 -9.614213
v -1.459337 0.621920 -9.614213
v -1.459337 0.431001 -9.614213
v -1.459337 2.521932 -9.614213
v -1.459337 3.342835 -9.614213
v -1.459337 4.465038 -9.614213
v -1.459337 3.014474 -9.614213
v -1.459337 4.240598 -9.614213
v -1.459337 5.709852 -9.614213
v -1.459337 5.904767 -9.614213
v -1.459337 6.185444 -9.614213
v -1.459337 4.907833 -9.614213
v -1.459337 2.179930 -9.614213
v -1.459337 0.119460 -9.614213
v -1.459337 2.124601 -9.614213
v -3.192197 0.010000 -9.614213
v -3.192197 7.659001 -9.614213
v -3.192197 0.621920 -9.614213
v -3.192197 0.431001 -9.614213
v -3.192197 2.521932 -9.614213
v -3.192197 3.342835 -9.614213
v -3.192197 4.465038 -9.614213
v -3.192197 3.014474 -9.614213
v -3.192197 4.240598 -9.614213
v -3.192197 5.709852 -9.614213
v -3.192197 5.904767 -9.614213
v -3.192197 6.185444 -9.614213
v -3.192197 4.907833 -9.614213
v -3.192197 2.179930 -9.614213
v -3.192197 0.119460 -9.614213
v -3.192197 2.124601 -9.614213
v -2.056144 0.010000 -9.614213
v -2.056144 7.659001 -9.614213
v -2.056144 0.621920 -9.614213
v -2.056144 0.431001 -9.614213
v -2.056144 2.521932 -9.614213
v -2.056144 3.342835 -9.614213
v -2.056144 4.465038 -9.614213
v -2.056144 3.014474 -9.614213
v -2.056144 4.240598 -9.614213
v -2.056144 5.709852 -9.614213
v -2.056144 5.904767 -9.614213
v -2.056144 6.185444 -9.614213
v -2.056144 4.907833 -9.614213
v -2.056144 2.179930 -9.614213
v -2.056144 0.119460 -9.614213
v -2.056144 2.124601 -9.614213
v -2.119097 0.010000 -9.614213
v -2.119097 7.659001 -9.614213
v -2.119097 0.621920 -9.614213
v -2.119097 0.431001 -9.614213
v -2.119097 2.521932 -9.614213
v -2.119097 3.342835 -9.614213
v -2.119097 4.465038 -9.614213
v -2.119097 3.014474 -9.614213
v -2.119097 4.240598 -9.614213
v -2.119097 5.709852 -9.614213
v -2.119097 5.904767 -9.614213
v -2.119097 6.185444 -9.614213
v -2.119097 4.907833 -9.614213
v -2.119097 2.179930 -9.614213
v -2.119097 0.119460 -9.614213
v -2.119097 2.124601 -9.614213
vn -0.0000 -0.0000 1.0000
vt 0.053843 0.219971
vt 0.053843 0.269480
vt 0.011544 0.269480
vt 0.011544 0.219971
vt 0.053843 0.026633
vt 0.053843 0.033048
vt 0.011544 0.033048
vt 0.011544 0.026633
vt 0.053843 0.016166
vt 0.011544 0.016166
vt 0.053843 0.085394
vt 0.053843 0.096885
vt 0.011544 0.096885
vt 0.011544 0.083300
vt 0.135638 0.085394
vt 0.135638 0.096885
vt 0.120685 0.096885
vt 0.120685 0.085394
vt 0.135638 0.016166
vt 0.135638 0.026633
vt 0.120685 0.026633
vt 0.120685 0.016166
vt 0.135638 0.033048
vt 0.120685 0.033048
vt 0.135638 0.219972
vt 0.135638 0.269480
vt 0.120685 0.269480
vt 0.120685 0.219972
vt 0.059705 0.085394
vt 0.059705 0.096885
vt 0.057469 0.096885
vt 0.057469 0.085394
vt 0.059705 0.016166
vt 0.059705 0.026633
vt 0.057469 0.026633
vt 0.057469 0.016166
vt 0.059705 0.033048
vt 0.057469 0.033048
vt 0.059705 0.219971
vt 0.059705 0.269480
vt 0.057469 0.269480
vt 0.057469 0.219971
vt 0.059705 0.113433
vt 0.059705 0.124465
vt 0.057469 0.124465
vt 0.057469 0.113433
vt 0.135638 0.113433
vt 0.135638 0.124465
vt 0.120685 0.124465
vt 0.120685 0.113433
vt 0.053843 0.113433
vt 0.053843 0.124465
vt 0.011544 0.124465
vt 0.011544 0.113433
vt 0.059705 0.154628
vt 0.059705 0.162169
vt 0.057469 0.162169
vt 0.057469 0.154628
vt 0.135638 0.154628
vt 0.135638 0.162169
vt 0.120685 0.162169
vt 0.120685 0.154628
vt 0.053843 0.154628
vt 0.053843 0.162169
vt 0.011544 0.162169
vt 0.011544 0.154628
vt 0.059705 0.177046
vt 0.059705 0.203992
vt 0.057469 0.203992
vt 0.057469 0.177046
vt 0.135638 0.177046
vt 0.135638 0.203993
vt 0.120685 0.203993
vt 0.120685 0.177046
vt 0.053843 0.177046
vt 0.053843 0.203992
vt 0.011544 0.203992
vt 0.011544 0.177046
vt 0.330693 0.177046
vt 0.330693 0.203993
vt 0.317307 0.203993
vt 0.317307 0.177046
vt 0.330693 0.124466
vt 0.330693 0.154629
vt 0.317307 0.154629
vt 0.317307 0.124466
vt 0.330693 0.096885
vt 0.330693 0.113433
vt 0.317307 0.113433
vt 0.317307 0.096885
vt 0.330693 0.162169
vt 0.317307 0.162169
vt 0.330693 0.219972
vt 0.330693 0.269480
vt 0.317307 0.269480
vt 0.317307 0.219972
vt 0.330693 0.026634
vt 0.330693 0.033048
vt 0.317307 0.033048
vt 0.317307 0.026634
vt 0.330693 0.016166
vt 0.317307 0.016166
vt 0.330693 0.085394
vt 0.317307 0.085394
vt 0.330693 0.210542
vt 0.317307 0.210542
vt 0.059705 0.210541
vt 0.057469 0.210541
vt 0.135638 0.210541
vt 0.120685 0.210541
vt 0.053843 0.210541
vt 0.011544 0.210541
vt 0.172710 0.203993
vt 0.172710 0.210541
vt 0.172710 0.177046
vt 0.172710 0.124465
vt 0.172710 0.154628
vt 0.172710 0.096885
vt 0.172710 0.113433
vt 0.172710 0.162169
vt 0.172710 0.219972
vt 0.172710 0.269480
vt 0.172710 0.026633
vt 0.172710 0.033048
vt 0.172710 0.016166
vt 0.172710 0.085394
vt 0.298244 0.177046
vt 0.298244 0.162169
vt 0.298244 0.219972
vt 0.298244 0.210542
vt 0.298244 0.096885
vt 0.298244 0.085394
vt 0.298244 0.026634
vt 0.298244 0.016166
vt 0.298244 0.033048
vt 0.298244 0.269480
vt 0.298244 0.124466
vt 0.298244 0.113433
vt 0.298244 0.154629
vt 0.298244 0.203993
vt 0.298244 0.083535
vt 0.172710 0.083535
vt 0.317307 0.083535
vt 0.057469 0.083535
vt 0.053843 0.083535
vt 0.135638 0.083535
vt 0.330693 0.083535
vt 0.059705 0.083535
vt 0.120685 0.083535
vt 0.011544 0.081515
vt 0.298244 0.012489
vt 0.172710 0.012489
vt 0.317307 0.012489
vt 0.057469 0.012489
vt 0.053843 0.012489
vt 0.135638 0.012489
vt 0.330693 0.012489
vt 0.059705 0.012489
vt 0.120685 0.012489
vt 0.011544 0.012489
vt 0.118781 0.083535
vt 0.118781 0.033048
vt 0.118781 0.016166
vt 0.118781 0.012489
vt 0.118781 0.085394
vt 0.118781 0.177046
vt 0.118781 0.162169
vt 0.118781 0.219972
vt 0.118781 0.210541
vt 0.118781 0.203993
vt 0.118781 0.154628
vt 0.118781 0.124465
vt 0.118781 0.113433
vt 0.118781 0.096885
vt 0.118781 0.269480
vt 0.118781 0.026633
vt 0.096289 0.033048
vt 0.096289 0.083535
vt 0.096289 0.012489
vt 0.096289 0.016166
vt 0.096289 0.085394
vt 0.096289 0.162169
vt 0.096289 0.177046
vt 0.096289 0.210541
vt 0.096289 0.219971
vt 0.096289 0.203993
vt 0.096289 0.124465
vt 0.096289 0.154628
vt 0.096289 0.096885
vt 0.096289 0.113433
vt 0.096289 0.269480
vt 0.096289 0.026633
vt 0.098435 0.096885
vt 0.098435 0.085394
vt 0.098435 0.026633
vt 0.098435 0.016166
vt 0.098435 0.033048
vt 0.098435 0.269480
vt 0.098435 0.219971
vt 0.098435 0.124465
vt 0.098435 0.113433
vt 0.098435 0.162169
vt 0.098435 0.154628
vt 0.098435 0.203993
vt 0.098435 0.177046
vt 0.098435 0.210541
vt 0.098435 0.083535
vt 0.098435 0.012489
s 0
usemtl Walls_Tex.004
f 84/1/1 74/2/1 3/3/1 67/4/1
f 76/5/1 75/6/1 5/7/1 8/8/1
f 133/9/1 76/5/1 8/8/1 128/10/1
f 124/11/1 77/12/1 9/13/1 119/14/1
f 123/15/1 60/16/1 15/17/1 120/18/1
f 132/19/1 59/20/1 14/21/1 129/22/1
f 59/20/1 58/23/1 13/24/1 14/21/1
f 72/25/1 57/26/1 12/27/1 69/28/1
f 174/29/1 165/30/1 20/31/1 121/32/1
f 175/33/1 164/34/1 19/35/1 130/36/1
f 164/34/1 163/37/1 18/38/1 19/35/1
f 172/39/1 162/40/1 17/41/1 70/42/1
f 168/43/1 166/44/1 24/45/1 31/46/1
f 63/47/1 61/48/1 23/49/1 30/50/1
f 80/51/1 78/52/1 21/53/1 32/54/1
f 169/55/1 167/56/1 28/57/1 35/58/1
f 64/59/1 62/60/1 27/61/1 34/62/1
f 81/63/1 79/64/1 25/65/1 36/66/1
f 77/12/1 80/51/1 32/54/1 9/13/1
f 60/16/1 63/47/1 30/50/1 15/17/1
f 165/30/1 168/43/1 31/46/1 20/31/1
f 78/52/1 81/63/1 36/66/1 21/53/1
f 61/48/1 64/59/1 34/62/1 23/49/1
f 166/44/1 169/55/1 35/58/1 24/45/1
f 173/67/1 170/68/1 40/69/1 87/70/1
f 90/71/1 65/72/1 39/73/1 86/74/1
f 91/75/1 82/76/1 37/77/1 88/78/1
f 85/79/1 38/80/1 50/81/1 89/82/1
f 22/83/1 33/84/1 49/85/1 46/86/1
f 10/87/1 29/88/1 48/89/1 45/90/1
f 33/84/1 26/91/1 47/92/1 49/85/1
f 29/88/1 22/83/1 46/86/1 48/89/1
f 68/93/1 4/94/1 42/95/1 71/96/1
f 7/97/1 6/98/1 43/99/1 44/100/1
f 127/101/1 7/97/1 44/100/1 131/102/1
f 118/103/1 10/87/1 45/90/1 122/104/1
f 38/80/1 52/105/1 55/106/1 50/81/1
f 170/68/1 171/107/1 54/108/1 40/69/1
f 65/72/1 66/109/1 53/110/1 39/73/1
f 82/76/1 83/111/1 51/112/1 37/77/1
f 114/113/1 115/114/1 66/109/1 65/72/1
f 117/115/1 114/113/1 65/72/1 90/71/1
f 110/116/1 113/117/1 64/59/1 61/48/1
f 109/118/1 112/119/1 63/47/1 60/16/1
f 113/117/1 111/120/1 62/60/1 64/59/1
f 112/119/1 110/116/1 61/48/1 63/47/1
f 116/121/1 106/122/1 57/26/1 72/25/1
f 108/123/1 107/124/1 58/23/1 59/20/1
f 135/125/1 108/123/1 59/20/1 132/19/1
f 126/126/1 109/118/1 60/16/1 123/15/1
f 115/114/1 116/121/1 72/25/1 66/109/1
f 52/105/1 68/93/1 71/96/1 55/106/1
f 171/107/1 172/39/1 70/42/1 54/108/1
f 66/109/1 72/25/1 69/28/1 53/110/1
f 83/111/1 84/1/1 67/4/1 51/112/1
f 54/108/1 70/42/1 84/1/1 83/111/1
f 40/69/1 54/108/1 83/111/1 82/76/1
f 87/70/1 40/69/1 82/76/1 91/75/1
f 24/45/1 35/58/1 81/63/1 78/52/1
f 20/31/1 31/46/1 80/51/1 77/12/1
f 35/58/1 28/57/1 79/64/1 81/63/1
f 31/46/1 24/45/1 78/52/1 80/51/1
f 121/32/1 20/31/1 77/12/1 124/11/1
f 130/36/1 19/35/1 76/5/1 133/9/1
f 19/35/1 18/38/1 75/6/1 76/5/1
f 70/42/1 17/41/1 74/2/1 84/1/1
f 28/57/1 87/70/1 91/75/1 79/64/1
f 111/120/1 117/115/1 90/71/1 62/60/1
f 26/91/1 85/79/1 89/82/1 47/92/1
f 79/64/1 91/75/1 88/78/1 25/65/1
f 62/60/1 90/71/1 86/74/1 27/61/1
f 167/56/1 173/67/1 87/70/1 28/57/1
f 47/92/1 89/82/1 104/127/1 98/128/1
f 55/106/1 71/96/1 103/129/1 102/130/1
f 122/104/1 45/90/1 96/131/1 125/132/1
f 131/102/1 44/100/1 95/133/1 134/134/1
f 44/100/1 43/99/1 94/135/1 95/133/1
f 71/96/1 42/95/1 93/136/1 103/129/1
f 48/89/1 46/86/1 97/137/1 99/138/1
f 49/85/1 47/92/1 98/128/1 100/139/1
f 45/90/1 48/89/1 99/138/1 96/131/1
f 46/86/1 49/85/1 100/139/1 97/137/1
f 89/82/1 50/81/1 101/140/1 104/127/1
f 50/81/1 55/106/1 102/130/1 101/140/1
f 98/128/1 104/127/1 117/115/1 111/120/1
f 102/130/1 103/129/1 116/121/1 115/114/1
f 125/132/1 96/131/1 109/118/1 126/126/1
f 134/134/1 95/133/1 108/123/1 135/125/1
f 95/133/1 94/135/1 107/124/1 108/123/1
f 103/129/1 93/136/1 106/122/1 116/121/1
f 99/138/1 97/137/1 110/116/1 112/119/1
f 100/139/1 98/128/1 111/120/1 113/117/1
f 96/131/1 99/138/1 112/119/1 109/118/1
f 97/137/1 100/139/1 113/117/1 110/116/1
f 104/127/1 101/140/1 114/113/1 117/115/1
f 101/140/1 102/130/1 115/114/1 114/113/1
f 142/141/1 125/132/1 126/126/1 143/142/1
f 139/143/1 122/104/1 125/132/1 142/141/1
f 138/144/1 121/32/1 124/11/1 141/145/1
f 143/142/1 126/126/1 123/15/1 140/146/1
f 136/147/1 118/103/1 122/104/1 139/143/1
f 176/148/1 174/29/1 121/32/1 138/144/1
f 140/146/1 123/15/1 120/18/1 137/149/1
f 141/145/1 124/11/1 119/14/1 144/150/1
f 92/151/1 134/134/1 135/125/1 105/152/1
f 41/153/1 131/102/1 134/134/1 92/151/1
f 16/154/1 130/36/1 133/9/1 73/155/1
f 105/152/1 135/125/1 132/19/1 56/156/1
f 2/157/1 127/101/1 131/102/1 41/153/1
f 161/158/1 175/33/1 130/36/1 16/154/1
f 56/156/1 132/19/1 129/22/1 11/159/1
f 73/155/1 133/9/1 128/10/1 1/160/1
f 75/6/1 141/145/1 144/150/1 5/7/1
f 58/23/1 140/146/1 137/149/1 13/24/1
f 163/37/1 176/148/1 138/144/1 18/38/1
f 6/98/1 136/147/1 139/143/1 43/99/1
f 107/124/1 143/142/1 140/146/1 58/23/1
f 18/38/1 138/144/1 141/145/1 75/6/1
f 43/99/1 139/143/1 142/141/1 94/135/1
f 94/135/1 142/141/1 143/142/1 107/124/1
f 13/24/1 137/149/1 160/161/1 147/162/1
f 11/159/1 129/22/1 159/163/1 145/164/1
f 137/149/1 120/18/1 158/165/1 160/161/1
f 27/61/1 86/74/1 157/166/1 151/167/1
f 53/110/1 69/28/1 156/168/1 155/169/1
f 39/73/1 53/110/1 155/169/1 154/170/1
f 86/74/1 39/73/1 154/170/1 157/166/1
f 23/49/1 34/62/1 153/171/1 150/172/1
f 15/17/1 30/50/1 152/173/1 149/174/1
f 34/62/1 27/61/1 151/167/1 153/171/1
f 30/50/1 23/49/1 150/172/1 152/173/1
f 69/28/1 12/27/1 146/175/1 156/168/1
f 14/21/1 13/24/1 147/162/1 148/176/1
f 129/22/1 14/21/1 148/176/1 159/163/1
f 120/18/1 15/17/1 149/174/1 158/165/1
f 195/177/1 208/178/1 176/148/1 163/37/1
f 193/179/1 207/180/1 175/33/1 161/158/1
f 208/178/1 206/181/1 174/29/1 176/148/1
f 199/182/1 205/183/1 173/67/1 167/56/1
f 203/184/1 204/185/1 172/39/1 171/107/1
f 202/186/1 203/184/1 171/107/1 170/68/1
f 205/183/1 202/186/1 170/68/1 173/67/1
f 198/187/1 201/188/1 169/55/1 166/44/1
f 197/189/1 200/190/1 168/43/1 165/30/1
f 201/188/1 199/182/1 167/56/1 169/55/1
f 200/190/1 198/187/1 166/44/1 168/43/1
f 204/185/1 194/191/1 162/40/1 172/39/1
f 196/192/1 195/177/1 163/37/1 164/34/1
f 207/180/1 196/192/1 164/34/1 175/33/1
f 206/181/1 197/189/1 165/30/1 174/29/1
f 158/165/1 149/174/1 181/193/1 190/194/1
f 159/163/1 148/176/1 180/195/1 191/196/1
f 148/176/1 147/162/1 179/197/1 180/195/1
f 156/168/1 146/175/1 178/198/1 188/199/1
f 152/173/1 150/172/1 182/200/1 184/201/1
f 153/171/1 151/167/1 183/202/1 185/203/1
f 149/174/1 152/173/1 184/201/1 181/193/1
f 150/172/1 153/171/1 185/203/1 182/200/1
f 157/166/1 154/170/1 186/204/1 189/205/1
f 154/170/1 155/169/1 187/206/1 186/204/1
f 155/169/1 156/168/1 188/199/1 187/206/1
f 151/167/1 157/166/1 189/205/1 183/202/1
f 160/161/1 158/165/1 190/194/1 192/207/1
f 145/164/1 159/163/1 191/196/1 177/208/1
f 147/162/1 160/161/1 192/207/1 179/197/1
f 190/194/1 181/193/1 197/189/1 206/181/1
f 191/196/1 180/195/1 196/192/1 207/180/1
f 180/195/1 179/197/1 195/177/1 196/192/1
f 188/199/1 178/198/1 194/191/1 204/185/1
f 184/201/1 182/200/1 198/187/1 200/190/1
f 185/203/1 183/202/1 199/182/1 201/188/1
f 181/193/1 184/201/1 200/190/1 197/189/1
f 182/200/1 185/203/1 201/188/1 198/187/1
f 189/205/1 186/204/1 202/186/1 205/183/1
f 186/204/1 187/206/1 203/184/1 202/186/1
f 187/206/1 188/199/1 204/185/1 203/184/1
f 183/202/1 189/205/1 205/183/1 199/182/1
f 192/207/1 190/194/1 206/181/1 208/178/1
f 177/208/1 191/196/1 207/180/1 193/179/1
f 179/197/1 192/207/1 208/178/1 195/177/1
