# Blender 4.1.1
# www.blender.org
mtllib ScreenBack.mtl
o ScreenBack
v 0.046507 0.010000 -8.897451
v -0.454558 0.010000 -8.880939
v -0.954416 0.010000 -8.831444
v -1.451863 0.010000 -8.749084
v -2.917798 0.010000 -8.307195
v -3.393717 0.010000 -8.096145
v 0.547572 3.510000 -8.880939
v 1.047430 3.510000 -8.831444
v 1.544877 3.510000 -8.749084
v 2.038714 3.510000 -8.634058
v 3.486731 3.510000 -8.096145
v -3.861348 3.510000 -7.854001
v -1.945700 3.510000 -8.634058
v -0.954416 3.510000 -8.831444
v 3.486731 0.010000 -8.096145
v 3.010812 0.010000 -8.307195
v 2.527752 0.010000 -8.486644
v 2.038714 0.010000 -8.634058
v -1.945700 0.010000 -8.634058
v -2.434738 0.010000 -8.486644
v -3.861348 0.010000 -7.854001
v 2.527752 3.510000 -8.486644
v 3.010812 3.510000 -8.307195
v 3.954362 3.510000 -7.854001
v -3.393717 3.510000 -8.096145
v -2.917798 3.510000 -8.307195
v -2.434738 3.510000 -8.486644
v -1.451863 3.510000 -8.749084
v -0.454558 3.510000 -8.880939
v 0.046507 3.510000 -8.897451
v 3.954362 0.010000 -7.854001
v 1.544877 0.010000 -8.749084
v 1.047430 0.010000 -8.831444
v 0.547572 0.010000 -8.880939
v -0.464029 0.010000 -9.002389
v -0.973335 0.010000 -8.951959
v -1.983356 0.010000 -8.750841
v 1.573198 3.510000 -8.868042
v 3.066841 3.510000 -8.417800
v 3.551756 3.510000 -8.202760
v 4.023828 3.510000 -7.958401
v -0.973335 3.510000 -8.951959
v -0.464029 3.510000 -9.002389
v 2.076370 0.010000 -8.750841
v 1.573198 0.010000 -8.868042
v 1.066349 0.010000 -8.951959
v 3.954362 0.593333 -7.854001
v 3.954362 1.176667 -7.854001
v 3.954362 2.343333 -7.854001
v 3.954362 2.926667 -7.854001
v -0.463922 2.343333 -9.002392
v -0.463922 1.760000 -9.002392
v -0.463922 1.176666 -9.002392
v -3.861348 0.593333 -7.854001
v 0.046505 1.176667 -9.019214
v 0.046505 1.760000 -9.019214
v 3.954362 1.760000 -7.854001
v 0.046505 0.593334 -9.019214
v 0.046505 2.926667 -9.019214
v -3.861348 2.926667 -7.854001
v -3.861348 2.343333 -7.854001
v -3.861348 1.760000 -7.854001
v -3.861348 1.176667 -7.854001
v -0.973338 0.593334 -8.951959
v 3.551756 2.926667 -8.202760
v 4.023828 0.593333 -7.958401
v -0.463922 0.593333 -9.002392
v 4.023828 1.760000 -7.958401
v -0.973338 2.343333 -8.951959
v 4.023828 2.926667 -7.958401
v -3.930813 2.926667 -7.958401
v -3.930813 2.343333 -7.958401
v -3.930813 1.760000 -7.958401
v -3.930813 0.593333 -7.958401
v -0.463922 2.926667 -9.002392
v 3.551756 1.176667 -8.202760
v 3.551756 0.593333 -8.202760
v 3.551756 0.010000 -8.202760
v 4.023828 0.010000 -7.958401
v 3.066841 0.010000 -8.417800
v -1.480187 2.343333 -8.868042
v -1.480187 1.760000 -8.868042
v -1.983302 1.176667 -8.750854
v -1.983302 1.760000 -8.750854
v -0.973338 1.760000 -8.951959
v -0.973338 2.926667 -8.951959
v 4.023828 1.176667 -7.958401
v -1.983302 0.593334 -8.750854
v 3.551756 1.760000 -8.202760
v 4.023828 2.343333 -7.958401
v 3.551756 2.343333 -8.202760
v -1.480187 0.593333 -8.868042
v 2.076370 3.510000 -8.750841
v 2.574651 3.510000 -8.600639
v -1.480187 1.176667 -8.868042
v 2.574651 2.926667 -8.600639
v -0.973338 1.176667 -8.951959
v 3.066841 2.343333 -8.417800
v 3.066841 2.926667 -8.417800
v -1.983302 2.926667 -8.750854
v 2.574651 1.176667 -8.600639
v 3.066841 1.176667 -8.417800
v 2.574651 0.593333 -8.600639
v 2.574651 0.010000 -8.600639
v -1.480187 2.926667 -8.868042
v 3.066841 0.593334 -8.417800
v -1.983358 2.343333 -8.750841
v -2.481639 2.343333 -8.600639
v -2.481639 1.760000 -8.600639
v -2.973829 1.760000 -8.417800
v -2.973829 0.593334 -8.417800
v -2.481639 0.010000 -8.600639
v 3.066841 1.760000 -8.417800
v -2.481639 0.593333 -8.600639
v -2.973829 1.176667 -8.417800
v 2.574651 1.760000 -8.600639
v -2.481639 1.176667 -8.600639
v 2.574651 2.343333 -8.600639
v 2.076370 2.343333 -8.750841
v -2.973829 2.926667 -8.417800
v -2.973829 2.343333 -8.417800
v -2.481639 2.926667 -8.600639
v 1.573198 2.926667 -8.868042
v -2.481639 3.510000 -8.600639
v -1.983358 3.510000 -8.750841
v 2.076314 2.926667 -8.750854
v 1.066349 1.176667 -8.951959
v 1.573198 1.176667 -8.868042
v -3.458744 2.343333 -8.202760
v 1.573198 0.593333 -8.868042
v -3.458744 1.760000 -8.202760
v 2.076314 0.593334 -8.750854
v -3.930815 1.176667 -7.958401
v -2.973829 0.010000 -8.417800
v 1.066349 2.926667 -8.951959
v -3.930815 0.010000 -7.958401
v 1.066349 1.760000 -8.951959
v -3.458744 0.010000 -8.202760
v 2.076314 1.760000 -8.750854
v 2.076314 1.176667 -8.750854
v -3.458744 0.593333 -8.202760
v 1.573198 1.760000 -8.868042
v -3.458744 1.176667 -8.202760
v 1.573198 2.343333 -8.868042
v 0.556934 3.510000 -9.002392
v 1.066349 3.510000 -8.951959
v 0.556934 2.926667 -9.002392
v 1.066349 2.343333 -8.951959
v -3.458744 2.926667 -8.202760
v -1.480187 0.010000 -8.868042
v 0.556934 0.593333 -9.002392
v 0.556934 0.010000 -9.002392
v 0.046505 3.510000 -9.019214
v 1.066349 0.593334 -8.951959
v -3.930815 3.510000 -7.958401
v -3.458744 3.510000 -8.202760
v -2.973829 3.510000 -8.417800
v -1.480187 3.510000 -8.868042
v 0.556934 1.176666 -9.002392
v 0.556934 1.760000 -9.002392
v 0.046505 0.010000 -9.019214
v 0.556934 2.343333 -9.002392
v 0.046507 2.343333 -9.019214
vn -0.0000 1.0000 -0.0000
vn -0.0000 -1.0000 -0.0000
vn -0.8325 -0.0000 0.5540
vn -0.0658 -0.0000 -0.9978
vn -0.1311 -0.0000 -0.9914
vn -0.0000 -0.0000 -1.0000
vn -0.1953 -0.0000 -0.9807
vn -0.2580 -0.0000 -0.9662
vn -0.3187 -0.0000 -0.9479
vn -0.3771 -0.0000 -0.9262
vn -0.4329 -0.0000 -0.9014
vn -0.4597 -0.0000 -0.8881
vn 0.4329 -0.0000 -0.9014
vn 0.4597 -0.0000 -0.8881
vn 0.3771 -0.0000 -0.9262
vn 0.8325 -0.0000 0.5540
vn 0.3187 -0.0000 -0.9479
vn 0.2580 -0.0000 -0.9662
vn 0.1953 -0.0000 -0.9807
vn 0.1311 -0.0000 -0.9914
vn 0.0658 -0.0000 -0.9978
vt 0.000000 0.000000
vt 0.077596 0.363469
vt 0.136133 0.363469
vt 0.136133 0.422030
vt 0.077596 0.422030
vt 0.018511 0.363469
vt 0.018511 0.422031
vt 0.077596 0.480592
vt 0.018511 0.480592
vt 0.136133 0.480592
s 1
usemtl ScreenContent
f 23/1/1 39/1/1 94/1/1 22/1/1
f 19/1/2 37/1/2 150/1/2 4/1/2
f 17/1/2 104/1/2 80/1/2 16/1/2
f 22/1/1 94/1/1 93/1/1 10/1/1
f 4/1/2 150/1/2 36/1/2 3/1/2
f 16/1/2 80/1/2 78/1/2 15/1/2
f 10/1/1 93/1/1 38/1/1 9/1/1
f 3/1/2 36/1/2 35/1/2 2/1/2
f 15/1/2 78/1/2 79/1/2 31/1/2
f 54/1/3 74/1/3 136/1/3 21/1/3
f 9/1/1 38/1/1 146/1/1 8/1/1
f 2/1/2 35/1/2 161/1/2 1/1/2
f 30/1/1 153/1/1 43/1/1 29/1/1
f 8/1/1 146/1/1 145/1/1 7/1/1
f 29/1/1 43/1/1 42/1/1 14/1/1
f 7/1/1 145/1/1 153/1/1 30/1/1
f 35/2/4 36/3/5 64/4/5 67/5/4
f 161/6/6 35/2/4 67/5/4 58/7/6
f 58/7/6 67/5/4 53/8/4 55/9/6
f 67/5/4 64/4/5 97/10/5 53/8/4
f 51/2/4 69/3/5 86/4/5 75/5/4
f 163/6/6 51/2/4 75/5/4 59/7/6
f 59/7/6 75/5/4 43/8/4 153/9/6
f 75/5/4 86/4/5 42/10/5 43/8/4
f 82/5/7 84/4/8 107/10/8 81/8/7
f 85/7/5 82/5/7 81/8/7 69/9/5
f 97/6/5 95/2/7 82/5/7 85/7/5
f 95/2/7 83/3/8 84/4/8 82/5/7
f 150/2/7 37/3/8 88/4/8 92/5/7
f 36/6/5 150/2/7 92/5/7 64/7/5
f 64/7/5 92/5/7 95/8/7 97/9/5
f 92/5/7 88/4/8 83/10/8 95/8/7
f 81/2/7 107/3/8 100/4/8 105/5/7
f 69/6/5 81/2/7 105/5/7 86/7/5
f 86/7/5 105/5/7 158/8/7 42/9/5
f 105/5/7 100/4/8 125/10/8 158/8/7
f 109/5/9 110/4/10 121/10/10 108/8/9
f 84/7/8 109/5/9 108/8/9 107/9/8
f 83/6/8 117/2/9 109/5/9 84/7/8
f 117/2/9 115/3/10 110/4/10 109/5/9
f 112/2/9 134/3/10 111/4/10 114/5/9
f 37/6/8 112/2/9 114/5/9 88/7/8
f 88/7/8 114/5/9 117/8/9 83/9/8
f 114/5/9 111/4/10 115/10/10 117/8/9
f 108/2/9 121/3/10 120/4/10 122/5/9
f 107/6/8 108/2/9 122/5/9 100/7/8
f 100/7/8 122/5/9 124/8/9 125/9/8
f 122/5/9 120/4/10 157/10/10 124/8/9
f 131/5/11 73/4/12 72/10/12 129/8/11
f 110/7/10 131/5/11 129/8/11 121/9/10
f 65/5/13 40/8/13 41/10/14 70/4/14
f 99/7/15 39/9/15 40/8/13 65/5/13
f 18/1/2 44/1/2 104/1/2 17/1/2
f 20/1/2 112/1/2 37/1/2 19/1/2
f 11/1/1 40/1/1 39/1/1 23/1/1
f 32/1/2 45/1/2 44/1/2 18/1/2
f 5/1/2 134/1/2 112/1/2 20/1/2
f 24/1/1 41/1/1 40/1/1 11/1/1
f 33/1/2 46/1/2 45/1/2 32/1/2
f 6/1/2 138/1/2 134/1/2 5/1/2
f 25/1/1 156/1/1 155/1/1 12/1/1
f 34/1/2 152/1/2 46/1/2 33/1/2
f 21/1/2 136/1/2 138/1/2 6/1/2
f 26/1/1 157/1/1 156/1/1 25/1/1
f 1/1/2 161/1/2 152/1/2 34/1/2
f 27/1/1 124/1/1 157/1/1 26/1/1
f 50/1/16 70/1/16 41/1/16 24/1/16
f 13/1/1 125/1/1 124/1/1 27/1/1
f 28/1/1 158/1/1 125/1/1 13/1/1
f 14/1/1 42/1/1 158/1/1 28/1/1
f 31/1/16 79/1/16 66/1/16 47/1/16
f 47/1/16 66/1/16 87/1/16 48/1/16
f 48/1/16 87/1/16 68/1/16 57/1/16
f 57/1/16 68/1/16 90/1/16 49/1/16
f 49/1/16 90/1/16 70/1/16 50/1/16
f 98/6/15 99/7/15 65/5/13 91/2/13
f 91/2/13 65/5/13 70/4/14 90/3/14
f 77/5/13 76/8/13 87/10/14 66/4/14
f 106/7/15 102/9/15 76/8/13 77/5/13
f 80/6/15 106/7/15 77/5/13 78/2/13
f 78/2/13 77/5/13 66/4/14 79/3/14
f 76/2/13 89/5/13 68/4/14 87/3/14
f 102/6/15 113/7/15 89/5/13 76/2/13
f 113/7/15 98/9/15 91/8/13 89/5/13
f 89/5/13 91/8/13 90/10/14 68/4/14
f 115/6/10 143/2/11 131/5/11 110/7/10
f 143/2/11 133/3/12 73/4/12 131/5/11
f 138/2/11 136/3/12 74/4/12 141/5/11
f 134/6/10 138/2/11 141/5/11 111/7/10
f 111/7/10 141/5/11 143/8/11 115/9/10
f 141/5/11 74/4/12 133/10/12 143/8/11
f 129/2/11 72/3/12 71/4/12 149/5/11
f 121/6/10 129/2/11 149/5/11 120/7/10
f 120/7/10 149/5/11 156/8/11 157/9/10
f 149/5/11 71/4/12 155/10/12 156/8/11
f 12/1/3 155/1/3 71/1/3 60/1/3
f 60/1/3 71/1/3 72/1/3 61/1/3
f 61/1/3 72/1/3 73/1/3 62/1/3
f 62/1/3 73/1/3 133/1/3 63/1/3
f 63/1/3 133/1/3 74/1/3 54/1/3
f 96/5/17 94/8/17 39/10/15 99/4/15
f 126/7/18 93/9/18 94/8/17 96/5/17
f 119/6/18 126/7/18 96/5/17 118/2/17
f 118/2/17 96/5/17 99/4/15 98/3/15
f 103/5/17 101/8/17 102/10/15 106/4/15
f 132/7/18 140/9/18 101/8/17 103/5/17
f 44/6/18 132/7/18 103/5/17 104/2/17
f 104/2/17 103/5/17 106/4/15 80/3/15
f 101/2/17 116/5/17 113/4/15 102/3/15
f 140/6/18 139/7/18 116/5/17 101/2/17
f 139/7/18 119/9/18 118/8/17 116/5/17
f 116/5/17 118/8/17 98/10/15 113/4/15
f 123/5/19 38/8/19 93/10/18 126/4/18
f 135/7/20 146/9/20 38/8/19 123/5/19
f 148/6/20 135/7/20 123/5/19 144/2/19
f 144/2/19 123/5/19 126/4/18 119/3/18
f 130/5/19 128/8/19 140/10/18 132/4/18
f 154/7/20 127/9/20 128/8/19 130/5/19
f 46/6/20 154/7/20 130/5/19 45/2/19
f 45/2/19 130/5/19 132/4/18 44/3/18
f 128/2/19 142/5/19 139/4/18 140/3/18
f 127/6/20 137/7/20 142/5/19 128/2/19
f 137/7/20 148/9/20 144/8/19 142/5/19
f 142/5/19 144/8/19 119/10/18 139/4/18
f 147/5/21 145/8/21 146/10/20 135/4/20
f 59/7/6 153/9/6 145/8/21 147/5/21
f 163/6/6 59/7/6 147/5/21 162/2/21
f 162/2/21 147/5/21 135/4/20 148/3/20
f 151/5/21 159/8/21 127/10/20 154/4/20
f 58/7/6 55/9/6 159/8/21 151/5/21
f 161/6/6 58/7/6 151/5/21 152/2/21
f 152/2/21 151/5/21 154/4/20 46/3/20
f 159/2/21 160/5/21 137/4/20 127/3/20
f 55/6/6 56/7/6 160/5/21 159/2/21
f 56/7/6 163/9/6 162/8/21 160/5/21
f 160/5/21 162/8/21 148/10/20 137/4/20
f 53/2/4 97/3/5 85/4/5 52/5/4
f 55/6/6 53/2/4 52/5/4 56/7/6
f 56/7/6 52/5/4 51/8/4 163/9/6
f 52/5/4 85/4/5 69/10/5 51/8/4
