# Blender 4.1.1
# www.blender.org
mtllib ScreenContent.mtl
o ScreenContent
v 0.046507 0.078068 -8.897451
v -0.454558 0.078068 -8.880939
v -0.954416 0.078068 -8.831444
v -1.451863 0.078068 -8.749084
v -2.917798 0.078068 -8.307195
v -3.393717 0.078068 -8.096145
v 0.547572 3.510000 -8.880939
v 1.047430 3.510000 -8.831444
v 1.544877 3.510000 -8.749084
v 2.038714 3.510000 -8.634058
v 3.486731 3.510000 -8.096145
v -3.861348 3.510000 -7.854001
v -1.945700 3.510000 -8.634058
v -0.954416 3.510000 -8.831444
v 3.486731 0.078068 -8.096145
v 3.010812 0.078068 -8.307195
v 2.527752 0.078068 -8.486644
v 2.038714 0.078068 -8.634058
v -1.945700 0.078068 -8.634058
v -2.434738 0.078068 -8.486644
v -3.861348 0.078068 -7.854001
v 2.527752 3.510000 -8.486644
v 3.010812 3.510000 -8.307195
v 3.954362 3.510000 -7.854001
v -3.393717 3.510000 -8.096145
v -2.917798 3.510000 -8.307195
v -2.434738 3.510000 -8.486644
v -1.451863 3.510000 -8.749084
v -0.454558 3.510000 -8.880939
v 0.046507 3.510000 -8.897451
v 3.954362 0.078068 -7.854001
v 1.544877 0.078068 -8.749084
v 1.047430 0.078068 -8.831444
v 0.547572 0.078068 -8.880939
v -2.917798 3.019724 -8.307195
v -3.393717 0.568344 -8.096145
v -3.393717 1.058620 -8.096145
v -3.393717 1.548896 -8.096145
v -3.393717 2.039172 -8.096145
v -3.393717 2.529448 -8.096145
v -3.393717 3.019724 -8.096145
v -3.861348 0.568344 -7.854001
v -3.861348 1.058620 -7.854001
v -3.861348 1.548896 -7.854001
v -3.861348 2.039172 -7.854001
v -3.861348 2.529448 -7.854001
v -3.861348 3.019724 -7.854001
v -0.454558 0.568344 -8.880939
v -0.454558 1.058620 -8.880939
v -0.454558 1.548896 -8.880939
v -0.454558 2.039172 -8.880939
v -0.454558 2.529448 -8.880939
v -0.454558 3.019724 -8.880939
v 3.954362 3.019724 -7.854001
v 3.954362 2.529448 -7.854001
v 3.954362 2.039172 -7.854001
v 3.954362 1.548896 -7.854001
v 3.954362 1.058620 -7.854001
v 3.954362 0.568344 -7.854001
v -1.451863 3.019724 -8.749084
v -1.451863 2.529448 -8.749084
v -1.451863 2.039172 -8.749084
v -1.451863 1.548896 -8.749084
v -1.451863 1.058620 -8.749084
v -1.451863 0.568344 -8.749084
v -1.945700 0.568344 -8.634058
v -1.945700 1.058620 -8.634058
v -1.945700 1.548896 -8.634058
v -1.945700 2.039172 -8.634058
v -1.945700 2.529448 -8.634058
v -1.945700 3.019724 -8.634058
v 3.010812 3.019724 -8.307195
v 3.010812 2.529448 -8.307195
v 3.010812 2.039172 -8.307195
v 3.010812 1.548896 -8.307195
v 3.010812 1.058620 -8.307195
v 3.010812 0.568344 -8.307195
v 1.544877 0.568344 -8.749084
v 1.544877 1.058620 -8.749084
v 1.544877 1.548896 -8.749084
v 1.544877 2.039172 -8.749084
v 1.544877 2.529448 -8.749084
v 1.544877 3.019724 -8.749084
v 1.047430 0.568344 -8.831444
v 1.047430 1.058620 -8.831444
v 1.047430 1.548896 -8.831444
v 1.047430 2.039172 -8.831444
v 1.047430 2.529448 -8.831444
v 1.047430 3.019724 -8.831444
v 0.046507 3.019724 -8.897451
v 0.046507 2.529448 -8.897451
v 0.046507 2.039172 -8.897451
v 0.046507 1.548896 -8.897451
v 0.046507 1.058620 -8.897451
v 0.046507 0.568344 -8.897451
v 0.547572 0.568344 -8.880939
v 0.547572 1.058620 -8.880939
v 0.547572 1.548896 -8.880939
v 0.547572 2.039172 -8.880939
v 0.547572 2.529448 -8.880939
v 0.547572 3.019724 -8.880939
v 2.038714 0.568344 -8.634058
v 2.038714 1.058620 -8.634058
v 2.038714 1.548896 -8.634058
v 2.038714 2.039172 -8.634058
v 2.038714 2.529448 -8.634058
v 2.038714 3.019724 -8.634058
v -0.954416 0.568344 -8.831444
v -0.954416 1.058620 -8.831444
v -0.954416 1.548896 -8.831444
v -0.954416 2.039172 -8.831444
v -0.954416 2.529448 -8.831444
v -0.954416 3.019724 -8.831444
v 3.486731 0.568344 -8.096145
v 3.486731 1.058620 -8.096145
v 3.486731 1.548896 -8.096145
v 3.486731 2.039172 -8.096145
v 3.486731 2.529448 -8.096145
v 3.486731 3.019724 -8.096145
v -2.917798 2.529448 -8.307195
v -2.917798 2.039172 -8.307195
v -2.917798 1.548896 -8.307195
v -2.917798 1.058620 -8.307195
v -2.917798 0.568344 -8.307195
v -2.434738 3.019724 -8.486644
v -2.434738 2.529448 -8.486644
v -2.434738 2.039172 -8.486644
v -2.434738 1.548896 -8.486644
v -2.434738 1.058620 -8.486644
v -2.434738 0.568344 -8.486644
v 2.527752 3.019724 -8.486644
v 2.527752 2.529448 -8.486644
v 2.527752 2.039172 -8.486644
v 2.527752 1.548896 -8.486644
v 2.527752 1.058620 -8.486644
v 2.527752 0.568344 -8.486644
vn -0.0000 -0.0000 1.0000
vn 0.0658 -0.0000 0.9978
vn 0.1311 -0.0000 0.9914
vn 0.1953 -0.0000 0.9807
vn 0.3771 -0.0000 0.9262
vn 0.4330 -0.0000 0.9014
vn -0.0658 -0.0000 0.9978
vn -0.1311 -0.0000 0.9914
vn -0.1953 -0.0000 0.9807
vn -0.2580 -0.0000 0.9662
vn -0.4330 -0.0000 0.9014
vn 0.4598 -0.0000 0.8880
vn 0.2580 -0.0000 0.9662
vn -0.3771 -0.0000 0.9262
vn -0.3187 -0.0000 0.9479
vn 0.3187 -0.0000 0.9479
vn -0.4598 -0.0000 0.8880
vt 1.000000 0.142857
vt 0.937546 0.142857
vt 0.937546 0.000000
vt 1.000000 0.000000
vt 0.874830 0.428571
vt 0.874830 0.571429
vt 0.812452 0.571429
vt 0.812452 0.428571
vt 0.250043 0.714286
vt 0.187548 0.714286
vt 0.187548 0.571429
vt 0.250043 0.571429
vt 0.812452 0.142857
vt 0.812452 0.285714
vt 0.749957 0.285714
vt 0.749957 0.142857
vt 0.187548 0.000000
vt 0.187548 0.142857
vt 0.125170 0.142857
vt 0.125170 0.000000
vt 0.187548 0.857143
vt 0.125170 0.857143
vt 0.125170 0.714286
vt 0.749957 0.571429
vt 0.749957 0.714286
vt 0.687656 0.714286
vt 0.687656 0.571429
vt 0.125170 0.428571
vt 0.125170 0.571429
vt 0.062454 0.571429
vt 0.062454 0.428571
vt 0.312344 0.000000
vt 0.312344 0.142857
vt 0.250043 0.142857
vt 0.250043 0.000000
vt 0.312344 0.571429
vt 0.312344 0.714286
vt 0.062454 0.285714
vt 0.000000 0.428571
vt 0.000000 0.285714
vt 0.500000 0.142857
vt 0.500000 0.285714
vt 0.437184 0.285714
vt 0.437184 0.142857
vt 0.624938 1.000000
vt 0.562816 1.000000
vt 0.562816 0.857143
vt 0.624938 0.857143
vt 0.624938 0.285714
vt 0.562816 0.285714
vt 0.562816 0.142857
vt 0.624938 0.142857
vt 0.437184 0.428571
vt 0.437184 0.571429
vt 0.375062 0.571429
vt 0.375062 0.428571
vt 0.562816 0.714286
vt 0.500000 0.714286
vt 0.500000 0.571429
vt 0.562816 0.571429
vt 0.375062 0.000000
vt 0.375062 0.142857
vt 0.375062 0.285714
vt 0.312344 0.428571
vt 0.312344 0.285714
vt 0.562816 0.428571
vt 0.500000 0.428571
vt 0.937546 0.857143
vt 0.937546 1.000000
vt 0.874830 1.000000
vt 0.874830 0.857143
vt 0.500000 0.857143
vt 0.500000 1.000000
vt 0.437184 0.714286
vt 0.437184 0.857143
vt 0.375062 0.857143
vt 0.375062 0.714286
vt 0.375062 1.000000
vt 0.312344 1.000000
vt 0.312344 0.857143
vt 0.250043 0.428571
vt 0.250043 0.857143
vt 0.624938 0.428571
vt 0.437184 0.000000
vt 0.624938 0.571429
vt 0.624938 0.714286
vt 0.500000 0.000000
vt 0.562816 0.000000
vt 0.437184 1.000000
vt 0.062454 0.714286
vt 0.062454 0.857143
vt 0.000000 0.857143
vt 0.000000 0.714286
vt 0.000000 0.571429
vt 0.624938 0.000000
vt 0.062454 0.142857
vt 0.000000 0.142857
vt 0.062454 0.000000
vt 0.000000 0.000000
vt 0.687656 0.285714
vt 0.687656 0.142857
vt 0.687656 0.428571
vt 0.250043 0.285714
vt 0.062454 1.000000
vt 0.000000 1.000000
vt 0.687656 0.857143
vt 0.687656 1.000000
vt 0.687656 0.000000
vt 0.125170 0.285714
vt 0.125170 1.000000
vt 0.749957 0.428571
vt 0.749957 0.857143
vt 0.749957 1.000000
vt 0.749957 0.000000
vt 0.187548 0.428571
vt 0.187548 0.285714
vt 0.187548 1.000000
vt 0.812452 0.714286
vt 0.812452 0.857143
vt 0.812452 1.000000
vt 0.812452 0.000000
vt 0.250043 1.000000
vt 0.874830 0.714286
vt 0.874830 0.285714
vt 0.874830 0.142857
vt 0.874830 0.000000
vt 0.937546 0.285714
vt 0.937546 0.428571
vt 0.937546 0.571429
vt 0.937546 0.714286
vt 1.000000 1.000000
vt 1.000000 0.857143
vt 1.000000 0.714286
vt 1.000000 0.571429
vt 1.000000 0.428571
vt 1.000000 0.285714
s 1
usemtl ScreenContentSIze
f 59/1/17 114/2/11 15/3/11 31/4/17
f 75/5/14 74/6/14 133/7/15 134/8/15
f 70/9/13 126/10/16 127/11/16 69/12/13
f 136/13/15 135/14/15 103/15/10 102/16/10
f 20/17/16 130/18/16 124/19/5 5/20/5
f 126/10/16 125/21/16 35/22/5 120/23/5
f 105/24/10 106/25/10 82/26/9 81/27/9
f 122/28/5 121/29/5 39/30/6 38/31/6
f 4/32/4 65/33/4 66/34/13 19/35/13
f 62/36/4 61/37/4 70/9/13 69/12/13
f 37/38/6 38/31/6 44/39/12 43/40/12
f 95/41/1 94/42/1 49/43/2 48/44/2
f 8/45/8 7/46/7 101/47/7 89/48/8
f 85/49/8 97/50/7 96/51/7 84/52/8
f 50/53/2 51/54/2 111/55/3 110/56/3
f 100/57/7 91/58/1 92/59/1 99/60/7
f 3/61/3 108/62/3 65/33/4 4/32/4
f 109/63/3 110/56/3 63/64/4 64/65/4
f 97/50/7 94/42/1 95/41/1 96/51/7
f 98/66/7 93/67/1 94/42/1 97/50/7
f 119/68/11 11/69/11 23/70/14 72/71/14
f 101/47/7 90/72/1 91/58/1 100/57/7
f 99/60/7 92/59/1 93/67/1 98/66/7
f 7/46/7 30/73/1 90/72/1 101/47/7
f 52/74/2 53/75/2 113/76/3 112/77/3
f 113/76/3 14/78/3 28/79/4 60/80/4
f 63/64/4 62/36/4 69/12/13 68/81/13
f 51/54/2 52/74/2 112/77/3 111/55/3
f 48/44/2 49/43/2 109/63/3 108/62/3
f 61/37/4 60/80/4 71/82/13 70/9/13
f 49/43/2 50/53/2 110/56/3 109/63/3
f 86/83/8 98/66/7 97/50/7 85/49/8
f 2/84/2 48/44/2 108/62/3 3/61/3
f 87/85/8 99/60/7 98/66/7 86/83/8
f 88/86/8 100/57/7 99/60/7 87/85/8
f 96/51/7 95/41/1 1/87/1 34/88/7
f 91/58/1 90/72/1 53/75/2 52/74/2
f 89/48/8 101/47/7 100/57/7 88/86/8
f 92/59/1 91/58/1 52/74/2 51/54/2
f 93/67/1 92/59/1 51/54/2 50/53/2
f 53/75/2 29/89/2 14/78/3 113/76/3
f 1/87/1 95/41/1 48/44/2 2/84/2
f 94/42/1 93/67/1 50/53/2 49/43/2
f 40/90/6 41/91/6 47/92/12 46/93/12
f 39/30/6 40/90/6 46/93/12 45/94/12
f 84/52/8 96/51/7 34/88/7 33/95/8
f 36/96/6 37/38/6 43/40/12 42/97/12
f 38/31/6 39/30/6 45/94/12 44/39/12
f 6/98/6 36/96/6 42/97/12 21/99/12
f 79/100/9 85/49/8 84/52/8 78/101/9
f 90/72/1 30/73/1 29/89/2 53/75/2
f 82/26/9 88/86/8 87/85/8 81/27/9
f 80/102/9 86/83/8 85/49/8 79/100/9
f 64/65/4 63/64/4 68/81/13 67/103/13
f 65/33/4 64/65/4 67/103/13 66/34/13
f 41/91/6 25/104/6 12/105/12 47/92/12
f 83/106/9 89/48/8 88/86/8 82/26/9
f 81/27/9 87/85/8 86/83/8 80/102/9
f 9/107/9 8/45/8 89/48/8 83/106/9
f 120/23/5 35/22/5 41/91/6 40/90/6
f 78/101/9 84/52/8 33/95/8 32/108/9
f 123/109/5 122/28/5 38/31/6 37/38/6
f 121/29/5 120/23/5 40/90/6 39/30/6
f 124/19/5 123/109/5 37/38/6 36/96/6
f 5/20/5 124/19/5 36/96/6 6/98/6
f 35/22/5 26/110/5 25/104/6 41/91/6
f 104/111/10 105/24/10 81/27/9 80/102/9
f 106/25/10 107/112/10 83/106/9 82/26/9
f 103/15/10 104/111/10 80/102/9 79/100/9
f 102/16/10 103/15/10 79/100/9 78/101/9
f 107/112/10 10/113/10 9/107/9 83/106/9
f 127/11/16 126/10/16 120/23/5 121/29/5
f 18/114/10 102/16/10 78/101/9 32/108/9
f 128/115/16 127/11/16 121/29/5 122/28/5
f 129/116/16 128/115/16 122/28/5 123/109/5
f 125/21/16 27/117/16 26/110/5 35/22/5
f 132/118/15 131/119/15 107/112/10 106/25/10
f 130/18/16 129/116/16 123/109/5 124/19/5
f 133/7/15 132/118/15 106/25/10 105/24/10
f 134/8/15 133/7/15 105/24/10 104/111/10
f 131/119/15 22/120/15 10/113/10 107/112/10
f 17/121/15 136/13/15 102/16/10 18/114/10
f 135/14/15 134/8/15 104/111/10 103/15/10
f 67/103/13 129/116/16 130/18/16 66/34/13
f 68/81/13 128/115/16 129/116/16 67/103/13
f 66/34/13 130/18/16 20/17/16 19/35/13
f 71/82/13 125/21/16 126/10/16 70/9/13
f 69/12/13 127/11/16 128/115/16 68/81/13
f 13/122/13 27/117/16 125/21/16 71/82/13
f 73/123/14 72/71/14 131/119/15 132/118/15
f 72/71/14 23/70/14 22/120/15 131/119/15
f 76/124/14 75/5/14 134/8/15 135/14/15
f 74/6/14 73/123/14 132/118/15 133/7/15
f 77/125/14 76/124/14 135/14/15 136/13/15
f 16/126/14 77/125/14 136/13/15 17/121/15
f 60/80/4 28/79/4 13/122/13 71/82/13
f 108/62/3 109/63/3 64/65/4 65/33/4
f 110/56/3 111/55/3 62/36/4 63/64/4
f 111/55/3 112/77/3 61/37/4 62/36/4
f 112/77/3 113/76/3 60/80/4 61/37/4
f 15/3/11 114/2/11 77/125/14 16/126/14
f 114/2/11 115/127/11 76/124/14 77/125/14
f 115/127/11 116/128/11 75/5/14 76/124/14
f 116/128/11 117/129/11 74/6/14 75/5/14
f 117/129/11 118/130/11 73/123/14 74/6/14
f 118/130/11 119/68/11 72/71/14 73/123/14
f 24/131/17 11/69/11 119/68/11 54/132/17
f 54/132/17 119/68/11 118/130/11 55/133/17
f 55/133/17 118/130/11 117/129/11 56/134/17
f 56/134/17 117/129/11 116/128/11 57/135/17
f 57/135/17 116/128/11 115/127/11 58/136/17
f 58/136/17 115/127/11 114/2/11 59/1/17
