# Blender 4.1.1
# www.blender.org
mtllib Screen.mtl
o Screen
v 0.046507 0.010000 -8.897451
v -0.454558 0.010000 -8.880939
v -0.954416 0.010000 -8.831444
v -1.451863 0.010000 -8.749084
v -2.917798 0.010000 -8.307195
v -3.393717 0.010000 -8.096145
v 0.547572 3.510000 -8.880939
v 1.047430 3.510000 -8.831444
v 1.544877 3.510000 -8.749084
v 2.038714 3.510000 -8.634058
v 3.486731 3.510000 -8.096145
v -3.861348 3.510000 -7.854001
v -1.945700 3.510000 -8.634058
v -0.954416 3.510000 -8.831444
v 3.486731 0.010000 -8.096145
v 3.010812 0.010000 -8.307195
v 2.527752 0.010000 -8.486644
v 2.038714 0.010000 -8.634058
v -1.945700 0.010000 -8.634058
v -2.434738 0.010000 -8.486644
v -3.861348 0.010000 -7.854001
v 2.527752 3.510000 -8.486644
v 3.010812 3.510000 -8.307195
v 3.954362 3.510000 -7.854001
v -3.393717 3.510000 -8.096145
v -2.917798 3.510000 -8.307195
v -2.434738 3.510000 -8.486644
v -1.451863 3.510000 -8.749084
v -0.454558 3.510000 -8.880939
v 0.046507 3.510000 -8.897451
v 3.954362 0.010000 -7.854001
v 1.544877 0.010000 -8.749084
v 1.047430 0.010000 -8.831444
v 0.547572 0.010000 -8.880939
v 3.486731 2.926667 -8.096145
v 3.486731 2.343333 -8.096145
v 3.486731 1.760000 -8.096145
v 3.486731 1.176667 -8.096145
v 3.486731 0.593333 -8.096145
v 3.954362 0.593333 -7.854001
v 3.954362 1.176667 -7.854001
v 3.954362 2.343333 -7.854001
v 3.954362 2.926667 -7.854001
v -0.954416 2.926667 -8.831444
v -0.954416 2.343333 -8.831444
v -0.954416 1.760000 -8.831444
v -0.954416 1.176667 -8.831444
v -0.954416 0.593333 -8.831444
v 0.547572 2.926667 -8.880939
v 0.547572 2.343333 -8.880939
v 0.547572 1.760000 -8.880939
v 0.547572 1.176667 -8.880939
v 0.547572 0.593333 -8.880939
v -0.454558 2.926667 -8.880939
v -0.454558 2.343333 -8.880939
v -0.454558 1.760000 -8.880939
v -0.454558 1.176667 -8.880939
v -0.454558 0.593333 -8.880939
v 0.046507 0.593333 -8.897451
v 0.046507 1.176667 -8.897451
v 0.046507 1.760000 -8.897451
v 0.046507 2.343333 -8.897451
v 0.046507 2.926667 -8.897451
v -3.861348 0.593333 -7.854001
v 1.047430 2.926667 -8.831444
v 1.047430 2.343333 -8.831444
v 1.047430 1.760000 -8.831444
v 1.047430 1.176667 -8.831444
v 1.047430 0.593333 -8.831444
v -3.393717 2.926667 -8.096145
v -3.393717 2.343333 -8.096145
v -3.393717 1.760000 -8.096145
v -3.393717 1.176667 -8.096145
v -3.393717 0.593333 -8.096145
v 1.544877 2.926667 -8.749084
v 1.544877 2.343333 -8.749084
v 1.544877 1.760000 -8.749084
v 1.544877 1.176667 -8.749084
v 1.544877 0.593333 -8.749084
v -2.917798 2.926667 -8.307195
v -2.917798 2.343333 -8.307195
v -2.917798 1.760000 -8.307195
v -2.917798 1.176667 -8.307195
v -2.917798 0.593333 -8.307195
v 2.038714 2.926667 -8.634058
v 2.038714 2.343333 -8.634058
v 2.038714 1.760000 -8.634058
v 2.038714 1.176667 -8.634058
v 2.038714 0.593333 -8.634058
v -2.434738 2.926667 -8.486644
v -2.434738 2.343333 -8.486644
v -2.434738 1.760000 -8.486644
v -2.434738 1.176667 -8.486644
v -2.434738 0.593333 -8.486644
v 2.527752 2.926667 -8.486644
v 2.527752 2.343333 -8.486644
v 2.527752 1.760000 -8.486644
v 2.527752 1.176667 -8.486644
v 2.527752 0.593333 -8.486644
v 3.010812 0.593333 -8.307195
v 3.010812 1.176667 -8.307195
v 3.010812 1.760000 -8.307195
v 3.010812 2.343333 -8.307195
v 3.010812 2.926667 -8.307195
v -1.945700 2.926667 -8.634058
v -1.945700 2.343333 -8.634058
v -1.945700 1.760000 -8.634058
v -1.945700 1.176667 -8.634058
v -1.945700 0.593333 -8.634058
v -1.451863 0.593333 -8.749084
v -1.451863 1.176667 -8.749084
v -1.451863 1.760000 -8.749084
v -1.451863 2.343333 -8.749084
v -1.451863 2.926667 -8.749084
v 3.954362 1.760000 -7.854001
v -3.861348 2.926667 -7.854001
v -3.861348 2.343333 -7.854001
v -3.861348 1.760000 -7.854001
v -3.861348 1.176667 -7.854001
vn -0.0000 -0.0000 1.0000
vn 0.0658 -0.0000 0.9978
vn 0.1311 -0.0000 0.9914
vn 0.1953 -0.0000 0.9807
vn 0.3771 -0.0000 0.9262
vn 0.4330 -0.0000 0.9014
vn -0.0658 -0.0000 0.9978
vn -0.1311 -0.0000 0.9914
vn -0.1953 -0.0000 0.9807
vn -0.2580 -0.0000 0.9662
vn -0.4330 -0.0000 0.9014
vn 0.4598 -0.0000 0.8880
vn 0.2580 -0.0000 0.9662
vn -0.3771 -0.0000 0.9262
vn -0.3187 -0.0000 0.9479
vn 0.3187 -0.0000 0.9479
vn -0.4598 -0.0000 0.8880
vt 0.267680 0.893143
vt 0.326983 0.893143
vt 0.326744 0.963613
vt 0.267356 0.963613
vt 0.793071 0.893143
vt 0.855698 0.893143
vt 0.856209 0.963613
vt 0.793485 0.963613
vt 0.206929 0.893143
vt 0.206515 0.963613
vt 0.732320 0.893143
vt 0.732644 0.963613
vt 0.144302 0.893143
vt 0.143791 0.963613
vt 0.673017 0.893143
vt 0.673256 0.963613
vt 0.079323 0.893143
vt 0.078708 0.963613
vt 0.614770 0.893143
vt 0.614928 0.963613
vt 0.011452 0.893143
vt 0.010722 0.963613
vt 0.442786 0.893143
vt 0.500000 0.893143
vt 0.500000 0.963613
vt 0.442707 0.963613
vt 0.557214 0.893143
vt 0.557293 0.963613
vt 0.385230 0.893143
vt 0.385072 0.963613
vt 0.920677 0.893143
vt 0.988548 0.893143
vt 0.989278 0.963613
vt 0.921292 0.963613
vt 0.853143 0.540791
vt 0.917598 0.540791
vt 0.918214 0.611262
vt 0.853654 0.611262
vt 0.918830 0.681732
vt 0.854165 0.681732
vt 0.919445 0.752202
vt 0.854676 0.752202
vt 0.920061 0.822672
vt 0.855187 0.822672
vt 0.328179 0.540791
vt 0.386018 0.540791
vt 0.385860 0.611262
vt 0.327940 0.611262
vt 0.385703 0.681732
vt 0.327701 0.681732
vt 0.385545 0.752202
vt 0.327462 0.752202
vt 0.385388 0.822672
vt 0.327223 0.822672
vt 0.984893 0.540791
vt 0.985624 0.611262
vt 0.986355 0.681732
vt 0.987086 0.752202
vt 0.987817 0.822672
vt 0.500000 0.540791
vt 0.556823 0.540791
vt 0.556901 0.611262
vt 0.500000 0.611262
vt 0.556980 0.681732
vt 0.500000 0.681732
vt 0.557058 0.752202
vt 0.500000 0.752202
vt 0.557136 0.822672
vt 0.500000 0.822672
vt 0.443177 0.540791
vt 0.443099 0.611262
vt 0.443020 0.681732
vt 0.442942 0.752202
vt 0.442864 0.822672
vt 0.613982 0.540791
vt 0.614140 0.611262
vt 0.614297 0.681732
vt 0.614455 0.752202
vt 0.614612 0.822672
vt 0.015107 0.540791
vt 0.082402 0.540791
vt 0.081786 0.611262
vt 0.014376 0.611262
vt 0.081170 0.681732
vt 0.013645 0.681732
vt 0.080555 0.752202
vt 0.012914 0.752202
vt 0.079939 0.822672
vt 0.012183 0.822672
vt 0.671821 0.540791
vt 0.672060 0.611262
vt 0.672299 0.681732
vt 0.672538 0.752202
vt 0.672777 0.822672
vt 0.146857 0.540791
vt 0.146346 0.611262
vt 0.145835 0.681732
vt 0.145324 0.752202
vt 0.144813 0.822672
vt 0.730698 0.540791
vt 0.731022 0.611262
vt 0.731347 0.681732
vt 0.731671 0.752202
vt 0.731995 0.822672
vt 0.209001 0.540791
vt 0.208586 0.611262
vt 0.208172 0.681732
vt 0.207758 0.752202
vt 0.207343 0.822672
vt 0.790999 0.540791
vt 0.791414 0.611262
vt 0.791828 0.681732
vt 0.792242 0.752202
vt 0.792657 0.822672
vt 0.269302 0.540791
vt 0.268977 0.611262
vt 0.268653 0.681732
vt 0.268329 0.752202
vt 0.268005 0.822672
s 1
usemtl Screen
f 105/1/13 114/2/4 28/3/4 13/4/13
f 95/5/15 104/6/14 23/7/14 22/8/15
f 90/9/16 105/1/13 13/4/13 27/10/16
f 85/11/10 95/5/15 22/8/15 10/12/10
f 80/13/5 90/9/16 27/10/16 26/14/5
f 75/15/9 85/11/10 10/12/10 9/16/9
f 70/17/6 80/13/5 26/14/5 25/18/6
f 65/19/8 75/15/9 9/16/9 8/20/8
f 116/21/12 70/17/6 25/18/6 12/22/12
f 54/23/2 63/24/1 30/25/1 29/26/2
f 49/27/7 65/19/8 8/20/8 7/28/7
f 44/29/3 54/23/2 29/26/2 14/30/3
f 63/24/1 49/27/7 7/28/7 30/25/1
f 35/31/11 43/32/17 24/33/17 11/34/11
f 114/2/4 44/29/3 14/30/3 28/3/4
f 104/6/14 35/31/11 11/34/11 23/7/14
f 16/35/14 15/36/11 39/37/11 100/38/14
f 100/38/14 39/37/11 38/39/11 101/40/14
f 101/40/14 38/39/11 37/41/11 102/42/14
f 102/42/14 37/41/11 36/43/11 103/44/14
f 103/44/14 36/43/11 35/31/11 104/6/14
f 4/45/4 3/46/3 48/47/3 110/48/4
f 110/48/4 48/47/3 47/49/3 111/50/4
f 111/50/4 47/49/3 46/51/3 112/52/4
f 112/52/4 46/51/3 45/53/3 113/54/4
f 113/54/4 45/53/3 44/29/3 114/2/4
f 15/36/11 31/55/17 40/56/17 39/37/11
f 39/37/11 40/56/17 41/57/17 38/39/11
f 38/39/11 41/57/17 115/58/17 37/41/11
f 37/41/11 115/58/17 42/59/17 36/43/11
f 36/43/11 42/59/17 43/32/17 35/31/11
f 1/60/1 34/61/7 53/62/7 59/63/1
f 59/63/1 53/62/7 52/64/7 60/65/1
f 60/65/1 52/64/7 51/66/7 61/67/1
f 61/67/1 51/66/7 50/68/7 62/69/1
f 62/69/1 50/68/7 49/27/7 63/24/1
f 3/46/3 2/70/2 58/71/2 48/47/3
f 48/47/3 58/71/2 57/72/2 47/49/3
f 47/49/3 57/72/2 56/73/2 46/51/3
f 46/51/3 56/73/2 55/74/2 45/53/3
f 45/53/3 55/74/2 54/23/2 44/29/3
f 34/61/7 33/75/8 69/76/8 53/62/7
f 53/62/7 69/76/8 68/77/8 52/64/7
f 52/64/7 68/77/8 67/78/8 51/66/7
f 51/66/7 67/78/8 66/79/8 50/68/7
f 50/68/7 66/79/8 65/19/8 49/27/7
f 2/70/2 1/60/1 59/63/1 58/71/2
f 58/71/2 59/63/1 60/65/1 57/72/2
f 57/72/2 60/65/1 61/67/1 56/73/2
f 56/73/2 61/67/1 62/69/1 55/74/2
f 55/74/2 62/69/1 63/24/1 54/23/2
f 21/80/12 6/81/6 74/82/6 64/83/12
f 64/83/12 74/82/6 73/84/6 119/85/12
f 119/85/12 73/84/6 72/86/6 118/87/12
f 118/87/12 72/86/6 71/88/6 117/89/12
f 117/89/12 71/88/6 70/17/6 116/21/12
f 33/75/8 32/90/9 79/91/9 69/76/8
f 69/76/8 79/91/9 78/92/9 68/77/8
f 68/77/8 78/92/9 77/93/9 67/78/8
f 67/78/8 77/93/9 76/94/9 66/79/8
f 66/79/8 76/94/9 75/15/9 65/19/8
f 6/81/6 5/95/5 84/96/5 74/82/6
f 74/82/6 84/96/5 83/97/5 73/84/6
f 73/84/6 83/97/5 82/98/5 72/86/6
f 72/86/6 82/98/5 81/99/5 71/88/6
f 71/88/6 81/99/5 80/13/5 70/17/6
f 32/90/9 18/100/10 89/101/10 79/91/9
f 79/91/9 89/101/10 88/102/10 78/92/9
f 78/92/9 88/102/10 87/103/10 77/93/9
f 77/93/9 87/103/10 86/104/10 76/94/9
f 76/94/9 86/104/10 85/11/10 75/15/9
f 5/95/5 20/105/16 94/106/16 84/96/5
f 84/96/5 94/106/16 93/107/16 83/97/5
f 83/97/5 93/107/16 92/108/16 82/98/5
f 82/98/5 92/108/16 91/109/16 81/99/5
f 81/99/5 91/109/16 90/9/16 80/13/5
f 18/100/10 17/110/15 99/111/15 89/101/10
f 89/101/10 99/111/15 98/112/15 88/102/10
f 88/102/10 98/112/15 97/113/15 87/103/10
f 87/103/10 97/113/15 96/114/15 86/104/10
f 86/104/10 96/114/15 95/5/15 85/11/10
f 20/105/16 19/115/13 109/116/13 94/106/16
f 94/106/16 109/116/13 108/117/13 93/107/16
f 93/107/16 108/117/13 107/118/13 92/108/16
f 92/108/16 107/118/13 106/119/13 91/109/16
f 91/109/16 106/119/13 105/1/13 90/9/16
f 17/110/15 16/35/14 100/38/14 99/111/15
f 99/111/15 100/38/14 101/40/14 98/112/15
f 98/112/15 101/40/14 102/42/14 97/113/15
f 97/113/15 102/42/14 103/44/14 96/114/15
f 96/114/15 103/44/14 104/6/14 95/5/15
f 19/115/13 4/45/4 110/48/4 109/116/13
f 109/116/13 110/48/4 111/50/4 108/117/13
f 108/117/13 111/50/4 112/52/4 107/118/13
f 107/118/13 112/52/4 113/54/4 106/119/13
f 106/119/13 113/54/4 114/2/4 105/1/13
