# Blender 4.1.1
# www.blender.org
mtllib FireSaftey.mtl
o FireSaftey
v 4.756766 1.462206 6.248315
v 4.756766 1.462206 6.399123
v 4.756766 1.248676 6.248315
v 4.756766 1.248676 6.399123
v 4.754363 1.460311 6.397228
v 4.754363 1.460311 6.250210
v 4.754363 1.250571 6.397228
v 4.754363 1.250571 6.250210
vn -1.0000 -0.0000 -0.0000
vn -0.6192 0.7852 -0.0000
vn -0.6192 -0.7852 -0.0000
vn -0.6192 -0.0000 -0.7852
vn -0.6192 -0.0000 0.7852
vt 0.322645 0.362634
vt 0.322645 0.799029
vt 0.016752 0.799029
vt 0.016752 0.362634
vt 0.326588 0.802972
vt 0.012809 0.802972
vt 0.012809 0.358691
vt 0.326588 0.358691
s 0
usemtl Proto_VP_Details_A
f 7/1/1 5/2/1 6/3/1 8/4/1
f 6/3/2 5/2/2 2/5/2 1/6/2
f 7/1/3 8/4/3 3/7/3 4/8/3
f 8/4/4 6/3/4 1/6/4 3/7/4
f 5/2/5 7/1/5 4/8/5 2/5/5
