# Blender 4.1.1
# www.blender.org
mtllib SoundPanels.mtl
o Cube.011
v -1.902069 7.062745 -4.314849
v -1.902069 7.073745 -4.303849
v -1.913069 7.073745 -4.314849
v -1.902069 7.143044 -4.303849
v -1.902069 7.154044 -4.314849
v -1.913069 7.143044 -4.314849
v -1.902069 7.062745 -6.929795
v -1.913069 7.073745 -6.929795
v -1.902069 7.073745 -6.940795
v -1.902069 7.154044 -6.929795
v -1.902069 7.143044 -6.940795
v -1.913069 7.143044 -6.929795
v -0.744391 7.062745 -4.314849
v -0.733391 7.073745 -4.314849
v -0.744391 7.073745 -4.303849
v -0.744391 7.154044 -4.314849
v -0.744391 7.143044 -4.303849
v -0.733391 7.143044 -4.314849
v -0.744391 7.062745 -6.929795
v -0.744391 7.073745 -6.940795
v -0.733391 7.073745 -6.929795
v -0.744391 7.154044 -6.929795
v -0.733391 7.143044 -6.929795
v -0.744391 7.143044 -6.940795
v -0.538069 7.062745 -4.314849
v -0.538069 7.073745 -4.303849
v -0.549069 7.073745 -4.314849
v -0.538069 7.143044 -4.303849
v -0.538069 7.154044 -4.314849
v -0.549069 7.143044 -4.314849
v -0.538069 7.062745 -6.929795
v -0.549069 7.073745 -6.929795
v -0.538069 7.073745 -6.940795
v -0.538069 7.154044 -6.929795
v -0.538069 7.143044 -6.940795
v -0.549069 7.143044 -6.929795
v 0.619609 7.062745 -4.314849
v 0.630609 7.073745 -4.314849
v 0.619609 7.073745 -4.303849
v 0.619609 7.154044 -4.314849
v 0.619609 7.143044 -4.303849
v 0.630609 7.143044 -4.314849
v 0.619609 7.062745 -6.929795
v 0.619609 7.073745 -6.940795
v 0.630609 7.073745 -6.929795
v 0.619609 7.154044 -6.929795
v 0.630609 7.143044 -6.929795
v 0.619609 7.143044 -6.940795
v 0.825932 7.062745 -4.314849
v 0.825932 7.073745 -4.303849
v 0.814931 7.073745 -4.314849
v 0.825932 7.143044 -4.303849
v 0.825932 7.154044 -4.314849
v 0.814931 7.143044 -4.314849
v 0.825932 7.062745 -6.929795
v 0.814931 7.073745 -6.929795
v 0.825932 7.073745 -6.940795
v 0.825932 7.154044 -6.929795
v 0.825932 7.143044 -6.940795
v 0.814931 7.143044 -6.929795
v 1.983609 7.062745 -4.314849
v 1.994608 7.073745 -4.314849
v 1.983609 7.073745 -4.303849
v 1.983609 7.154044 -4.314849
v 1.983609 7.143044 -4.303849
v 1.994608 7.143044 -4.314849
v 1.983609 7.062745 -6.929795
v 1.983609 7.073745 -6.940795
v 1.994608 7.073745 -6.929795
v 1.983609 7.154044 -6.929795
v 1.994608 7.143044 -6.929795
v 1.983609 7.143044 -6.940795
v -1.902069 7.062745 -1.432849
v -1.902069 7.073745 -1.421849
v -1.913069 7.073745 -1.432849
v -1.902069 7.143044 -1.421849
v -1.902069 7.154044 -1.432849
v -1.913069 7.143044 -1.432849
v -1.902069 7.062745 -4.047795
v -1.913069 7.073745 -4.047795
v -1.902069 7.073745 -4.058795
v -1.902069 7.154044 -4.047795
v -1.902069 7.143044 -4.058795
v -1.913069 7.143044 -4.047795
v -0.744391 7.062745 -1.432849
v -0.733391 7.073745 -1.432849
v -0.744391 7.073745 -1.421849
v -0.744391 7.154044 -1.432849
v -0.744391 7.143044 -1.421849
v -0.733391 7.143044 -1.432849
v -0.744391 7.062745 -4.047795
v -0.744391 7.073745 -4.058795
v -0.733391 7.073745 -4.047795
v -0.744391 7.154044 -4.047795
v -0.733391 7.143044 -4.047795
v -0.744391 7.143044 -4.058795
v -0.538069 7.062745 -1.432849
v -0.538069 7.073745 -1.421849
v -0.549069 7.073745 -1.432849
v -0.538069 7.143044 -1.421849
v -0.538069 7.154044 -1.432849
v -0.549069 7.143044 -1.432849
v -0.538069 7.062745 -4.047795
v -0.549069 7.073745 -4.047795
v -0.538069 7.073745 -4.058795
v -0.538069 7.154044 -4.047795
v -0.538069 7.143044 -4.058795
v -0.549069 7.143044 -4.047795
v 0.619609 7.062745 -1.432849
v 0.630609 7.073745 -1.432849
v 0.619609 7.073745 -1.421849
v 0.619609 7.154044 -1.432849
v 0.619609 7.143044 -1.421849
v 0.630609 7.143044 -1.432849
v 0.619609 7.062745 -4.047795
v 0.619609 7.073745 -4.058795
v 0.630609 7.073745 -4.047795
v 0.619609 7.154044 -4.047795
v 0.630609 7.143044 -4.047795
v 0.619609 7.143044 -4.058795
v 0.825932 7.062745 -1.432849
v 0.825932 7.073745 -1.421849
v 0.814931 7.073745 -1.432849
v 0.825932 7.143044 -1.421849
v 0.825932 7.154044 -1.432849
v 0.814931 7.143044 -1.432849
v 0.825932 7.062745 -4.047795
v 0.814931 7.073745 -4.047795
v 0.825932 7.073745 -4.058795
v 0.825932 7.154044 -4.047795
v 0.825932 7.143044 -4.058795
v 0.814931 7.143044 -4.047795
v 1.983609 7.062745 -1.432849
v 1.994608 7.073745 -1.432849
v 1.983609 7.073745 -1.421849
v 1.983609 7.154044 -1.432849
v 1.983609 7.143044 -1.421849
v 1.994608 7.143044 -1.432849
v 1.983609 7.062745 -4.047795
v 1.983609 7.073745 -4.058795
v 1.994608 7.073745 -4.047795
v 1.983609 7.154044 -4.047795
v 1.994608 7.143044 -4.047795
v 1.983609 7.143044 -4.058795
vn -0.0000 -0.0000 1.0000
vn 1.0000 -0.0000 -0.0000
vn -0.0000 1.0000 -0.0000
vn -1.0000 -0.0000 -0.0000
vn -0.0000 -0.0000 -1.0000
vn -0.5774 -0.5773 0.5773
vn -0.5774 0.5773 0.5773
vn -0.5774 -0.5773 -0.5773
vn -0.5774 0.5773 -0.5773
vn 0.5774 -0.5773 0.5773
vn 0.5774 0.5773 0.5773
vn 0.5774 -0.5773 -0.5773
vn 0.5774 0.5773 -0.5773
vn -0.7071 -0.7071 -0.0000
vn -0.7071 -0.0000 0.7071
vn -0.7071 0.7071 -0.0000
vn -0.7071 -0.0000 -0.7071
vn -0.0000 -0.7071 -0.7071
vn -0.0000 0.7071 -0.7071
vn 0.7071 -0.0000 -0.7071
vn 0.7071 -0.7071 -0.0000
vn 0.7071 0.7071 -0.0000
vn 0.7071 -0.0000 0.7071
vn -0.0000 -0.7071 0.7071
vn -0.0000 0.7071 0.7071
vn -0.0000 -1.0000 -0.0000
vn 0.5773 -0.5773 0.5774
vn 0.5773 0.5773 0.5774
vn 0.5773 -0.5773 -0.5774
vn 0.5773 0.5773 -0.5774
vn -0.5774 -0.5774 0.5773
vn -0.5774 0.5774 0.5773
vn -0.5774 -0.5774 -0.5773
vn -0.5774 0.5774 -0.5773
vn 0.5774 -0.5773 -0.5774
vn 0.5774 0.5773 -0.5774
vn -0.5774 -0.5773 0.5774
vn -0.5774 0.5773 0.5774
vn 0.5774 -0.5773 0.5774
vn 0.5774 0.5773 0.5774
vt 0.405121 0.752331
vt 0.594879 0.752331
vt 0.594879 0.997669
vt 0.405121 0.997669
vt 0.405121 0.501043
vt 0.594879 0.501043
vt 0.594879 0.748957
vt 0.405121 0.748957
vt 0.627331 0.501043
vt 0.872669 0.501043
vt 0.872669 0.748957
vt 0.627331 0.748957
vt 0.405121 0.001043
vt 0.594879 0.001043
vt 0.594879 0.248957
vt 0.405121 0.248957
vt 0.405121 0.252331
vt 0.594879 0.252331
vt 0.594879 0.497669
vt 0.405121 0.497669
vt 0.127331 0.748957
vt 0.127331 0.750000
vt 0.125000 0.748957
vt 0.625000 0.997669
vt 0.594879 1.000000
vt 0.127331 0.501043
vt 0.125000 0.501043
vt 0.127331 0.500000
vt 0.625000 0.252331
vt 0.594879 0.250000
vt 0.372669 0.748957
vt 0.375000 0.748957
vt 0.372669 0.750000
vt 0.625000 0.752331
vt 0.594879 0.750000
vt 0.372669 0.501043
vt 0.372669 0.500000
vt 0.375000 0.501043
vt 0.625000 0.501043
vt 0.594879 0.500000
vt 0.405121 0.000000
vt 0.594879 0.000000
vt 0.625000 0.001043
vt 0.625000 0.248957
vt 0.625000 0.497669
s 0
usemtl Ceiling_squares
f 15/1/1 17/2/1 4/3/1 2/4/1
f 21/5/2 23/6/2 18/7/2 14/8/2
f 22/9/3 10/10/3 5/11/3 16/12/3
f 3/13/4 6/14/4 12/15/4 8/16/4
f 9/17/5 11/18/5 24/19/5 20/20/5
f 1/21/6 2/22/6 3/23/6
f 4/3/7 5/24/7 6/25/7
f 7/26/8 8/27/8 9/28/8
f 10/29/9 11/18/9 12/30/9
f 13/31/10 14/32/10 15/33/10
f 16/34/11 17/2/11 18/35/11
f 19/36/12 20/37/12 21/38/12
f 22/39/13 23/6/13 24/40/13
f 7/26/14 1/21/14 3/23/14 8/27/14
f 2/41/15 4/42/15 6/14/15 3/13/15
f 5/43/16 10/44/16 12/15/16 6/14/16
f 11/18/17 9/17/17 8/16/17 12/15/17
f 19/36/18 7/26/18 9/28/18 20/37/18
f 10/29/19 22/45/19 24/19/19 11/18/19
f 23/6/20 21/5/20 20/20/20 24/19/20
f 13/31/21 19/36/21 21/5/21 14/8/21
f 22/9/22 16/12/22 18/7/22 23/6/22
f 17/2/23 15/1/23 14/8/23 18/7/23
f 1/21/24 13/31/24 15/33/24 2/22/24
f 16/34/25 5/24/25 4/3/25 17/2/25
f 7/26/26 19/36/26 13/31/26 1/21/26
f 39/1/1 41/2/1 28/3/1 26/4/1
f 45/5/2 47/6/2 42/7/2 38/8/2
f 46/9/3 34/10/3 29/11/3 40/12/3
f 27/13/4 30/14/4 36/15/4 32/16/4
f 33/17/5 35/18/5 48/19/5 44/20/5
f 25/21/6 26/22/6 27/23/6
f 28/3/7 29/24/7 30/25/7
f 31/26/8 32/27/8 33/28/8
f 34/29/9 35/18/9 36/30/9
f 37/31/27 38/32/27 39/33/27
f 40/34/28 41/2/28 42/35/28
f 43/36/29 44/37/29 45/38/29
f 46/39/30 47/6/30 48/40/30
f 31/26/14 25/21/14 27/23/14 32/27/14
f 26/41/15 28/42/15 30/14/15 27/13/15
f 29/43/16 34/44/16 36/15/16 30/14/16
f 35/18/17 33/17/17 32/16/17 36/15/17
f 43/36/18 31/26/18 33/28/18 44/37/18
f 34/29/19 46/45/19 48/19/19 35/18/19
f 47/6/20 45/5/20 44/20/20 48/19/20
f 37/31/21 43/36/21 45/5/21 38/8/21
f 46/9/22 40/12/22 42/7/22 47/6/22
f 41/2/23 39/1/23 38/8/23 42/7/23
f 25/21/24 37/31/24 39/33/24 26/22/24
f 40/34/25 29/24/25 28/3/25 41/2/25
f 31/26/26 43/36/26 37/31/26 25/21/26
f 63/1/1 65/2/1 52/3/1 50/4/1
f 69/5/2 71/6/2 66/7/2 62/8/2
f 70/9/3 58/10/3 53/11/3 64/12/3
f 51/13/4 54/14/4 60/15/4 56/16/4
f 57/17/5 59/18/5 72/19/5 68/20/5
f 49/21/31 50/22/31 51/23/31
f 52/3/32 53/24/32 54/25/32
f 55/26/33 56/27/33 57/28/33
f 58/29/34 59/18/34 60/30/34
f 61/31/10 62/32/10 63/33/10
f 64/34/11 65/2/11 66/35/11
f 67/36/35 68/37/35 69/38/35
f 70/39/36 71/6/36 72/40/36
f 55/26/14 49/21/14 51/23/14 56/27/14
f 50/41/15 52/42/15 54/14/15 51/13/15
f 53/43/16 58/44/16 60/15/16 54/14/16
f 59/18/17 57/17/17 56/16/17 60/15/17
f 67/36/18 55/26/18 57/28/18 68/37/18
f 58/29/19 70/45/19 72/19/19 59/18/19
f 71/6/20 69/5/20 68/20/20 72/19/20
f 61/31/21 67/36/21 69/5/21 62/8/21
f 70/9/22 64/12/22 66/7/22 71/6/22
f 65/2/23 63/1/23 62/8/23 66/7/23
f 49/21/24 61/31/24 63/33/24 50/22/24
f 64/34/25 53/24/25 52/3/25 65/2/25
f 55/26/26 67/36/26 61/31/26 49/21/26
f 87/1/1 89/2/1 76/3/1 74/4/1
f 93/5/2 95/6/2 90/7/2 86/8/2
f 94/9/3 82/10/3 77/11/3 88/12/3
f 75/13/4 78/14/4 84/15/4 80/16/4
f 81/17/5 83/18/5 96/19/5 92/20/5
f 73/21/37 74/22/37 75/23/37
f 76/3/38 77/24/38 78/25/38
f 79/26/8 80/27/8 81/28/8
f 82/29/9 83/18/9 84/30/9
f 85/31/39 86/32/39 87/33/39
f 88/34/40 89/2/40 90/35/40
f 91/36/12 92/37/12 93/38/12
f 94/39/13 95/6/13 96/40/13
f 79/26/14 73/21/14 75/23/14 80/27/14
f 74/41/15 76/42/15 78/14/15 75/13/15
f 77/43/16 82/44/16 84/15/16 78/14/16
f 83/18/17 81/17/17 80/16/17 84/15/17
f 91/36/18 79/26/18 81/28/18 92/37/18
f 82/29/19 94/45/19 96/19/19 83/18/19
f 95/6/20 93/5/20 92/20/20 96/19/20
f 85/31/21 91/36/21 93/5/21 86/8/21
f 94/9/22 88/12/22 90/7/22 95/6/22
f 89/2/23 87/1/23 86/8/23 90/7/23
f 73/21/24 85/31/24 87/33/24 74/22/24
f 88/34/25 77/24/25 76/3/25 89/2/25
f 79/26/26 91/36/26 85/31/26 73/21/26
f 111/1/1 113/2/1 100/3/1 98/4/1
f 117/5/2 119/6/2 114/7/2 110/8/2
f 118/9/3 106/10/3 101/11/3 112/12/3
f 99/13/4 102/14/4 108/15/4 104/16/4
f 105/17/5 107/18/5 120/19/5 116/20/5
f 97/21/37 98/22/37 99/23/37
f 100/3/38 101/24/38 102/25/38
f 103/26/8 104/27/8 105/28/8
f 106/29/9 107/18/9 108/30/9
f 109/31/27 110/32/27 111/33/27
f 112/34/28 113/2/28 114/35/28
f 115/36/29 116/37/29 117/38/29
f 118/39/30 119/6/30 120/40/30
f 103/26/14 97/21/14 99/23/14 104/27/14
f 98/41/15 100/42/15 102/14/15 99/13/15
f 101/43/16 106/44/16 108/15/16 102/14/16
f 107/18/17 105/17/17 104/16/17 108/15/17
f 115/36/18 103/26/18 105/28/18 116/37/18
f 106/29/19 118/45/19 120/19/19 107/18/19
f 119/6/20 117/5/20 116/20/20 120/19/20
f 109/31/21 115/36/21 117/5/21 110/8/21
f 118/9/22 112/12/22 114/7/22 119/6/22
f 113/2/23 111/1/23 110/8/23 114/7/23
f 97/21/24 109/31/24 111/33/24 98/22/24
f 112/34/25 101/24/25 100/3/25 113/2/25
f 103/26/26 115/36/26 109/31/26 97/21/26
f 135/1/1 137/2/1 124/3/1 122/4/1
f 141/5/2 143/6/2 138/7/2 134/8/2
f 142/9/3 130/10/3 125/11/3 136/12/3
f 123/13/4 126/14/4 132/15/4 128/16/4
f 129/17/5 131/18/5 144/19/5 140/20/5
f 121/21/37 122/22/37 123/23/37
f 124/3/38 125/24/38 126/25/38
f 127/26/33 128/27/33 129/28/33
f 130/29/34 131/18/34 132/30/34
f 133/31/39 134/32/39 135/33/39
f 136/34/40 137/2/40 138/35/40
f 139/36/12 140/37/12 141/38/12
f 142/39/13 143/6/13 144/40/13
f 127/26/14 121/21/14 123/23/14 128/27/14
f 122/41/15 124/42/15 126/14/15 123/13/15
f 125/43/16 130/44/16 132/15/16 126/14/16
f 131/18/17 129/17/17 128/16/17 132/15/17
f 139/36/18 127/26/18 129/28/18 140/37/18
f 130/29/19 142/45/19 144/19/19 131/18/19
f 143/6/20 141/5/20 140/20/20 144/19/20
f 133/31/21 139/36/21 141/5/21 134/8/21
f 142/9/22 136/12/22 138/7/22 143/6/22
f 137/2/23 135/1/23 134/8/23 138/7/23
f 121/21/24 133/31/24 135/33/24 122/22/24
f 136/34/25 125/24/25 124/3/25 137/2/25
f 127/26/26 139/36/26 133/31/26 121/21/26
o Cube.012
v -1.913069 7.062745 -7.233878
v -1.913069 7.154044 -7.233878
v -1.913069 7.062745 -8.439441
v -1.913069 7.154044 -8.439441
v -0.733391 7.062745 -7.233878
v -0.733391 7.154044 -7.233878
v -0.733391 7.062745 -8.439441
v -0.733391 7.154044 -8.439441
v -0.549069 7.062745 -7.233878
v -0.549069 7.154044 -7.233878
v -0.549069 7.062745 -8.439441
v -0.549069 7.154044 -8.439441
v 0.630609 7.062745 -7.233878
v 0.630609 7.154044 -7.233878
v 0.630609 7.062745 -8.439441
v 0.630609 7.154044 -8.439441
v 0.814931 7.062745 -7.233878
v 0.814931 7.154044 -7.233878
v 0.814931 7.062745 -8.439441
v 0.814931 7.154044 -8.439441
v 1.994608 7.062745 -7.233878
v 1.994608 7.154044 -7.233878
v 1.994608 7.062745 -8.439441
v 1.994608 7.154044 -8.439441
vn -1.0000 -0.0000 -0.0000
vn -0.0000 -0.0000 -1.0000
vn 1.0000 -0.0000 -0.0000
vn -0.0000 -0.0000 1.0000
vn -0.0000 -1.0000 -0.0000
vn -0.0000 1.0000 -0.0000
vt 0.375000 0.000000
vt 0.625000 0.000000
vt 0.625000 0.250000
vt 0.375000 0.250000
vt 0.625000 0.500000
vt 0.375000 0.500000
vt 0.625000 0.750000
vt 0.375000 0.750000
vt 0.625000 1.000000
vt 0.375000 1.000000
vt 0.125000 0.500000
vt 0.125000 0.750000
vt 0.875000 0.500000
vt 0.875000 0.750000
s 0
usemtl Ceiling_squares
f 145/46/41 146/47/41 148/48/41 147/49/41
f 147/49/42 148/48/42 152/50/42 151/51/42
f 151/51/43 152/50/43 150/52/43 149/53/43
f 149/53/44 150/52/44 146/54/44 145/55/44
f 147/56/45 151/51/45 149/53/45 145/57/45
f 152/50/46 148/58/46 146/59/46 150/52/46
f 153/46/41 154/47/41 156/48/41 155/49/41
f 155/49/42 156/48/42 160/50/42 159/51/42
f 159/51/43 160/50/43 158/52/43 157/53/43
f 157/53/44 158/52/44 154/54/44 153/55/44
f 155/56/45 159/51/45 157/53/45 153/57/45
f 160/50/46 156/58/46 154/59/46 158/52/46
f 161/46/41 162/47/41 164/48/41 163/49/41
f 163/49/42 164/48/42 168/50/42 167/51/42
f 167/51/43 168/50/43 166/52/43 165/53/43
f 165/53/44 166/52/44 162/54/44 161/55/44
f 163/56/45 167/51/45 165/53/45 161/57/45
f 168/50/46 164/58/46 162/59/46 166/52/46
o Cube.013
v -1.896486 7.062745 3.648153
v -1.896486 7.154044 3.648153
v -1.896486 7.062745 6.285099
v -1.896486 7.154044 6.285099
v -0.716809 7.062745 3.648153
v -0.716809 7.154044 3.648153
v -0.716809 7.062745 6.285099
v -0.716809 7.154044 6.285099
v -0.532486 7.062745 3.648153
v -0.532486 7.154044 3.648153
v -0.532486 7.062745 6.285099
v -0.532486 7.154044 6.285099
v 0.647191 7.062745 3.648153
v 0.647191 7.154044 3.648153
v 0.647191 7.062745 6.285099
v 0.647191 7.154044 6.285099
v 0.831514 7.062745 3.648153
v 0.831514 7.154044 3.648153
v 0.831514 7.062745 6.285099
v 0.831514 7.154044 6.285099
v 2.011191 7.062745 3.648153
v 2.011191 7.154044 3.648153
v 2.011191 7.062745 6.285099
v 2.011191 7.154044 6.285099
v -1.896486 7.062745 0.766153
v -1.896486 7.154044 0.766153
v -1.896486 7.062745 3.403099
v -1.896486 7.154044 3.403099
v -0.716809 7.062745 0.766153
v -0.716809 7.154044 0.766153
v -0.716809 7.062745 3.403099
v -0.716809 7.154044 3.403099
v -0.532486 7.062745 0.766153
v -0.532486 7.154044 0.766153
v -0.532486 7.062745 3.403099
v -0.532486 7.154044 3.403099
v 0.647191 7.062745 0.766153
v 0.647191 7.154044 0.766153
v 0.647191 7.062745 3.403099
v 0.647191 7.154044 3.403099
v 0.831514 7.062745 0.766153
v 0.831514 7.154044 0.766153
v 0.831514 7.062745 3.403099
v 0.831514 7.154044 3.403099
v 2.011191 7.062745 0.766153
v 2.011191 7.154044 0.766153
v 2.011191 7.062745 3.403099
v 2.011191 7.154044 3.403099
vn -1.0000 -0.0000 -0.0000
vn -0.0000 -0.0000 1.0000
vn 1.0000 -0.0000 -0.0000
vn -0.0000 -0.0000 -1.0000
vn -0.0000 -1.0000 -0.0000
vn -0.0000 1.0000 -0.0000
vt 0.375000 0.000000
vt 0.625000 0.000000
vt 0.625000 0.250000
vt 0.375000 0.250000
vt 0.625000 0.500000
vt 0.375000 0.500000
vt 0.625000 0.750000
vt 0.375000 0.750000
vt 0.625000 1.000000
vt 0.375000 1.000000
vt 0.125000 0.500000
vt 0.125000 0.750000
vt 0.875000 0.500000
vt 0.875000 0.750000
s 0
usemtl Ceiling_squares
f 169/60/47 171/63/47 172/62/47 170/61/47
f 171/63/48 175/65/48 176/64/48 172/62/48
f 175/65/49 173/67/49 174/66/49 176/64/49
f 173/67/50 169/69/50 170/68/50 174/66/50
f 171/70/51 169/71/51 173/67/51 175/65/51
f 176/64/52 174/66/52 170/73/52 172/72/52
f 177/60/47 179/63/47 180/62/47 178/61/47
f 179/63/48 183/65/48 184/64/48 180/62/48
f 183/65/49 181/67/49 182/66/49 184/64/49
f 181/67/50 177/69/50 178/68/50 182/66/50
f 179/70/51 177/71/51 181/67/51 183/65/51
f 184/64/52 182/66/52 178/73/52 180/72/52
f 185/60/47 187/63/47 188/62/47 186/61/47
f 187/63/48 191/65/48 192/64/48 188/62/48
f 191/65/49 189/67/49 190/66/49 192/64/49
f 189/67/50 185/69/50 186/68/50 190/66/50
f 187/70/51 185/71/51 189/67/51 191/65/51
f 192/64/52 190/66/52 186/73/52 188/72/52
f 193/60/47 195/63/47 196/62/47 194/61/47
f 195/63/48 199/65/48 200/64/48 196/62/48
f 199/65/49 197/67/49 198/66/49 200/64/49
f 197/67/50 193/69/50 194/68/50 198/66/50
f 195/70/51 193/71/51 197/67/51 199/65/51
f 200/64/52 198/66/52 194/73/52 196/72/52
f 201/60/47 203/63/47 204/62/47 202/61/47
f 203/63/48 207/65/48 208/64/48 204/62/48
f 207/65/49 205/67/49 206/66/49 208/64/49
f 205/67/50 201/69/50 202/68/50 206/66/50
f 203/70/51 201/71/51 205/67/51 207/65/51
f 208/64/52 206/66/52 202/73/52 204/72/52
f 209/60/47 211/63/47 212/62/47 210/61/47
f 211/63/48 215/65/48 216/64/48 212/62/48
f 215/65/49 213/67/49 214/66/49 216/64/49
f 213/67/50 209/69/50 210/68/50 214/66/50
f 211/70/51 209/71/51 213/67/51 215/65/51
f 216/64/52 214/66/52 210/73/52 212/72/52
o Cube.014
v -1.896486 7.062745 6.578182
v -1.896486 7.154044 6.578182
v -1.896486 7.062745 7.783745
v -1.896486 7.154044 7.783745
v -0.716809 7.062745 6.578182
v -0.716809 7.154044 6.578182
v -0.716809 7.062745 7.783745
v -0.716809 7.154044 7.783745
v -0.532486 7.062745 6.578182
v -0.532486 7.154044 6.578182
v -0.532486 7.062745 7.783745
v -0.532486 7.154044 7.783745
v 0.647191 7.062745 6.578182
v 0.647191 7.154044 6.578182
v 0.647191 7.062745 7.783745
v 0.647191 7.154044 7.783745
v 0.831514 7.062745 6.578182
v 0.831514 7.154044 6.578182
v 0.831514 7.062745 7.783745
v 0.831514 7.154044 7.783745
v 2.011191 7.062745 6.578182
v 2.011191 7.154044 6.578182
v 2.011191 7.062745 7.783745
v 2.011191 7.154044 7.783745
vn -1.0000 -0.0000 -0.0000
vn -0.0000 -0.0000 1.0000
vn 1.0000 -0.0000 -0.0000
vn -0.0000 -0.0000 -1.0000
vn -0.0000 -1.0000 -0.0000
vn -0.0000 1.0000 -0.0000
vt 0.375000 0.000000
vt 0.625000 0.000000
vt 0.625000 0.250000
vt 0.375000 0.250000
vt 0.625000 0.500000
vt 0.375000 0.500000
vt 0.625000 0.750000
vt 0.375000 0.750000
vt 0.625000 1.000000
vt 0.375000 1.000000
vt 0.125000 0.500000
vt 0.125000 0.750000
vt 0.875000 0.500000
vt 0.875000 0.750000
s 0
usemtl Ceiling_squares
f 217/74/53 219/77/53 220/76/53 218/75/53
f 219/77/54 223/79/54 224/78/54 220/76/54
f 223/79/55 221/81/55 222/80/55 224/78/55
f 221/81/56 217/83/56 218/82/56 222/80/56
f 219/84/57 217/85/57 221/81/57 223/79/57
f 224/78/58 222/80/58 218/87/58 220/86/58
f 225/74/53 227/77/53 228/76/53 226/75/53
f 227/77/54 231/79/54 232/78/54 228/76/54
f 231/79/55 229/81/55 230/80/55 232/78/55
f 229/81/56 225/83/56 226/82/56 230/80/56
f 227/84/57 225/85/57 229/81/57 231/79/57
f 232/78/58 230/80/58 226/87/58 228/86/58
f 233/74/53 235/77/53 236/76/53 234/75/53
f 235/77/54 239/79/54 240/78/54 236/76/54
f 239/79/55 237/81/55 238/80/55 240/78/55
f 237/81/56 233/83/56 234/82/56 238/80/56
f 235/84/57 233/85/57 237/81/57 239/79/57
f 240/78/58 238/80/58 234/87/58 236/86/58
