# Blender 4.1.1
# www.blender.org
mtllib Door_C.mtl
o Door_C
v -1.403497 0.010000 9.778663
v -3.257797 0.010000 9.778663
v -1.403497 2.179930 9.778663
v -3.257797 2.179930 9.778663
v -1.403497 2.124601 9.778663
v -3.257797 2.124601 9.778663
v -1.459337 0.010000 9.778663
v -1.459337 2.179930 9.778663
v -1.459337 2.124601 9.778663
v -3.192197 0.010000 9.778663
v -3.192197 2.179930 9.778663
v -3.192197 2.124601 9.778663
v -1.459337 0.010000 9.761708
v -1.403497 0.010000 9.761708
v -1.403497 2.124601 9.761708
v -3.257797 0.010000 9.761708
v -3.257797 2.124601 9.761708
v -1.459337 2.179930 9.761708
v -1.403497 2.179930 9.761708
v -3.257797 2.179930 9.761708
v -1.459337 2.124601 9.761708
v -3.192197 2.179930 9.761708
v -3.192197 2.124601 9.761708
v -3.192197 0.010000 9.761708
v -2.329051 0.010000 9.778663
v -2.329051 2.179930 9.778663
v -2.329051 2.124601 9.778663
v -2.329051 2.179930 9.761708
v -2.329051 2.124601 9.761708
v -2.812827 0.010000 9.778663
v -2.812827 2.179930 9.778663
v -2.812827 2.124601 9.778663
v -2.812827 2.179930 9.761708
v -2.812827 2.124601 9.761708
v -3.098962 0.010000 9.778663
v -3.098962 2.179930 9.778663
v -3.098962 2.124601 9.778663
v -3.098962 2.179930 9.761708
v -3.098962 2.124601 9.761708
v -3.257797 2.018406 9.778663
v -1.403497 2.018406 9.778663
v -1.459337 2.018406 9.778663
v -3.192197 2.018406 9.778663
v -3.257797 2.018406 9.761708
v -1.403497 2.018406 9.761708
v -1.459337 2.018406 9.761708
v -3.192197 2.018406 9.761708
v -2.329051 2.018406 9.778663
v -3.257797 2.119220 9.778663
v -1.403497 2.119220 9.778663
v -1.459337 2.119220 9.778663
v -3.192197 2.119220 9.778663
v -3.257797 2.119220 9.761708
v -1.403497 2.119220 9.761708
v -1.459337 2.119220 9.761708
v -3.192197 2.119220 9.761708
v -2.329051 2.119220 9.778663
v -1.837738 0.010000 9.778663
v -1.837738 2.179930 9.778663
v -1.837738 2.124601 9.778663
v -1.837738 2.179930 9.761708
v -1.837738 2.124601 9.761708
v -1.551796 0.010000 9.778663
v -1.551796 2.179930 9.778663
v -1.551796 2.124601 9.778663
v -1.551796 2.179930 9.761708
v -1.551796 2.124601 9.761708
v -2.814875 2.107505 9.778662
v -2.818147 2.025621 9.778662
v -3.096211 2.119106 9.778663
v -3.098962 2.037451 9.778664
v -1.551796 2.027982 9.778663
v -1.835834 2.027982 9.778663
v -1.551796 2.111954 9.778663
v -1.835834 2.111954 9.778663
v -2.830552 2.030402 9.738822
v -2.845149 2.043779 9.727509
v -2.836286 2.034882 9.730824
v -3.075921 2.053503 9.727510
v -3.090303 2.041346 9.738830
v -3.085072 2.045365 9.730824
v -2.843143 2.094270 9.727509
v -2.827552 2.105809 9.738822
v -2.833610 2.102230 9.730824
v -3.087764 2.116532 9.738829
v -3.074221 2.103789 9.727509
v -3.082803 2.112497 9.730825
v -1.820532 2.033934 9.738699
v -1.804706 2.047143 9.727509
v -1.814122 2.038494 9.730788
v -1.804706 2.096404 9.727509
v -1.820533 2.108823 9.738700
v -1.814122 2.104822 9.730787
v -1.577379 2.047143 9.727509
v -1.562763 2.033933 9.738707
v -1.568317 2.038493 9.730790
v -1.562763 2.108824 9.738708
v -1.577379 2.096404 9.727509
v -1.568317 2.104823 9.730788
v -1.713928 2.117619 9.772966
v -1.713928 2.123252 9.772966
v -1.693301 2.117619 9.596375
v -1.693301 2.123252 9.596375
v -1.698992 2.117619 9.774508
v -1.698992 2.123252 9.774508
v -1.682722 2.117619 9.597918
v -1.682722 2.123252 9.597918
v -1.696301 2.117619 9.602165
v -1.696301 2.123252 9.602165
v -1.681366 2.117619 9.603707
v -1.681366 2.123252 9.603707
v -1.685522 2.117619 9.595228
v -1.690501 2.117619 9.594714
v -1.690501 2.123252 9.594714
v -1.685522 2.123252 9.595228
v -1.708950 2.117619 9.773480
v -1.703971 2.117619 9.773994
v -1.703971 2.123252 9.773994
v -1.708950 2.123252 9.773480
v -1.691323 2.123252 9.602679
v -1.686344 2.123252 9.603193
v -1.686344 2.117619 9.603193
v -1.691323 2.117619 9.602679
v -1.672114 2.110902 9.773222
v -1.672114 2.116535 9.773222
v -1.694870 2.110902 9.596892
v -1.694870 2.116535 9.596892
v -1.657250 2.110902 9.771101
v -1.657250 2.116535 9.771101
v -1.684233 2.110902 9.595826
v -1.684233 2.116535 9.595826
v -1.696379 2.110902 9.603236
v -1.696379 2.116535 9.603236
v -1.681514 2.110902 9.601115
v -1.681514 2.116535 9.601115
v -1.687601 2.110902 9.593895
v -1.692555 2.110902 9.594603
v -1.692556 2.116535 9.594603
v -1.687601 2.116535 9.593896
v -1.667159 2.110902 9.772514
v -1.662204 2.110902 9.771808
v -1.662204 2.116535 9.771808
v -1.667159 2.116535 9.772514
v -1.691424 2.116535 9.602530
v -1.686469 2.116535 9.601823
v -1.686469 2.110902 9.601823
v -1.691424 2.110902 9.602530
v -2.989690 2.120294 9.772942
v -2.989449 2.125922 9.772948
v -2.968919 2.119594 9.596369
v -2.968678 2.125221 9.596375
v -2.974769 2.119654 9.774497
v -2.974528 2.125282 9.774503
v -2.958351 2.119140 9.597920
v -2.958111 2.124768 9.597926
v -2.971922 2.119716 9.602157
v -2.971681 2.125344 9.602162
v -2.957001 2.119076 9.603711
v -2.956761 2.124704 9.603717
v -2.961146 2.119263 9.595228
v -2.966120 2.119476 9.594710
v -2.965879 2.125104 9.594716
v -2.960906 2.124890 9.595235
v -2.984716 2.120081 9.773460
v -2.979743 2.119868 9.773978
v -2.979502 2.125495 9.773985
v -2.984475 2.125709 9.773466
v -2.966708 2.125131 9.602680
v -2.961734 2.124917 9.603199
v -2.961975 2.119290 9.603193
v -2.966949 2.119503 9.602674
v -2.948201 2.111796 9.773227
v -2.947960 2.117424 9.773232
v -2.970774 2.112950 9.596877
v -2.970533 2.118577 9.596884
v -2.933348 2.111163 9.771119
v -2.933107 2.116791 9.771125
v -2.960146 2.112496 9.595820
v -2.959905 2.118124 9.595826
v -2.972287 2.113008 9.603220
v -2.972047 2.118635 9.603226
v -2.957434 2.112375 9.601112
v -2.957194 2.118002 9.601118
v -2.963509 2.112642 9.593886
v -2.968460 2.112853 9.594589
v -2.968219 2.118481 9.594596
v -2.963268 2.118270 9.593893
v -2.943250 2.111585 9.772524
v -2.938299 2.111374 9.771821
v -2.938058 2.117002 9.771827
v -2.943009 2.117213 9.772530
v -2.967096 2.118424 9.602524
v -2.962145 2.118213 9.601821
v -2.962385 2.112586 9.601815
v -2.967337 2.112797 9.602518
vn -0.0000 -1.0000 -0.0000
vn -1.0000 -0.0000 -0.0000
vn -0.0000 -0.0000 -1.0000
vn -0.0000 1.0000 -0.0000
vn 1.0000 -0.0000 -0.0000
vn -0.0000 0.0002 -1.0000
vn -0.0000 0.0001 -1.0000
vn -0.0419 -0.9935 -0.1062
vn -0.0000 -0.0001 -1.0000
vn -0.9339 -0.0000 -0.3576
vn 0.0411 0.9976 -0.0556
vn -0.9773 0.0330 -0.2093
vn -0.0000 -0.9891 -0.1473
vn 0.9643 -0.0000 -0.2647
vn -0.0000 0.9969 -0.0781
vn 0.8037 -0.0320 -0.5942
vn 0.3384 -0.0134 -0.9409
vn -0.3498 0.0118 -0.9367
vn -0.8432 0.0285 -0.5369
vn -0.0153 -0.3624 -0.9319
vn -0.0372 -0.8831 -0.4678
vn 0.0371 0.9013 -0.4315
vn 0.0152 0.3689 -0.9293
vn -0.0000 -0.8665 -0.4993
vn -0.0000 -0.3545 -0.9351
vn -0.0000 0.3629 -0.9318
vn -0.0000 0.8925 -0.4511
vn -0.3288 -0.0000 -0.9444
vn -0.7770 -0.0000 -0.6295
vn 0.8187 -0.0000 -0.5742
vn 0.3403 -0.0000 -0.9403
vn 0.9527 -0.0380 -0.3014
vn -0.8879 -0.0000 -0.4601
vn 0.6927 -0.0000 -0.7212
vn 0.9947 -0.0000 0.1027
vn 0.9736 -0.0000 -0.2282
vn -0.9947 -0.0000 -0.1027
vn -0.5103 -0.0000 -0.8600
vn 0.1027 -0.0000 -0.9947
vn -0.9729 -0.0000 -0.2314
vn 0.4974 -0.0000 -0.8675
vn 0.9900 -0.0000 -0.1413
vn 0.8894 -0.0000 -0.4572
vn -0.9900 -0.0000 0.1413
vn -0.7033 -0.0000 -0.7109
vn -0.1413 0.0003 -0.9900
vn -0.8866 0.0385 -0.4609
vn 0.6928 -0.0290 -0.7206
vn 0.9937 -0.0426 0.1035
vn 0.0427 0.9991 0.0011
vn -0.0428 -0.9991 -0.0011
vn -0.0427 -0.9991 -0.0011
vn 0.9729 -0.0414 -0.2273
vn -0.9937 0.0426 -0.1035
vn -0.0429 -0.9991 -0.0011
vn 0.0426 0.9991 0.0011
vn 0.0428 0.9991 0.0011
vn -0.5091 0.0227 -0.8604
vn 0.1035 -0.0033 -0.9946
vn -0.9717 0.0418 -0.2323
vn 0.4977 -0.0203 -0.8671
vn 0.9892 -0.0422 -0.1404
vn 0.8890 -0.0375 -0.4563
vn -0.9892 0.0421 0.1405
vn -0.7020 0.0308 -0.7115
vn -0.1402 0.0070 -0.9901
vt 0.864426 0.952664
vt 0.907636 0.952664
vt 0.911039 0.956821
vt 0.867463 0.956821
vt 0.109853 0.905528
vt 0.106389 0.909303
vt 0.106389 0.010613
vt 0.109853 0.014079
vt 0.152138 0.909779
vt 0.152138 0.014079
vt 0.106389 0.956821
vt 0.106389 0.979292
vt 0.083811 0.979292
vt 0.083811 0.956821
vt 0.932898 0.954413
vt 0.932898 0.956821
vt 0.911039 0.954413
vt 0.149044 0.979292
vt 0.932898 0.979292
vt 0.911039 0.979292
vt 0.907636 0.905528
vt 0.907636 0.014079
vt 0.911039 0.010613
vt 0.911039 0.909303
vt 0.934291 0.951829
vt 0.934291 0.954233
vt 0.929593 0.954233
vt 0.929593 0.951829
vt 0.082616 0.979629
vt 0.082616 0.954942
vt 0.088254 0.954942
vt 0.088254 0.979629
vt 0.934291 0.978953
vt 0.929593 0.978953
vt 0.083811 0.909303
vt 0.083811 0.010613
vt 0.082616 0.907559
vt 0.082616 0.011432
vt 0.088254 0.011432
vt 0.088254 0.907559
vt 0.732767 0.945075
vt 0.731818 0.952664
vt 0.507613 0.952664
vt 0.507613 0.950275
vt 0.149044 0.956821
vt 0.733730 0.979292
vt 0.507624 0.979292
vt 0.282913 0.952664
vt 0.507624 0.956821
vt 0.280961 0.956821
vt 0.733730 0.956821
vt 0.867463 0.979292
vt 0.863151 0.950225
vt 0.907636 0.950275
vt 0.864426 0.913982
vt 0.864426 0.014079
vt 0.734283 0.908731
vt 0.731818 0.014079
vt 0.507613 0.905528
vt 0.507613 0.014079
vt 0.082616 0.952541
vt 0.088254 0.952541
vt 0.106389 0.954413
vt 0.083811 0.954413
vt 0.934291 0.009465
vt 0.934291 0.906787
vt 0.929593 0.906787
vt 0.929593 0.009465
vt 0.932898 0.010613
vt 0.932898 0.909303
vt 0.152138 0.947050
vt 0.109853 0.950275
vt 0.109853 0.952664
vt 0.152138 0.952664
vt 0.860413 0.915710
vt 0.740032 0.910853
vt 0.282042 0.947050
vt 0.282042 0.909779
vt 0.280961 0.979292
vt 0.282913 0.014079
vt 0.275044 0.945661
vt 0.275044 0.912421
vt 0.853748 0.921106
vt 0.852960 0.943426
vt 0.745868 0.939201
vt 0.746797 0.916790
vt 0.738642 0.944323
vt 0.859236 0.949082
vt 0.859237 0.949082
vt 0.860414 0.915710
vt 0.275044 0.912421
vt 0.157154 0.912420
vt 0.267805 0.940148
vt 0.163839 0.940148
vt 0.163839 0.918284
vt 0.267805 0.918284
vt 0.157154 0.912420
vt 0.157154 0.945661
vt 0.157154 0.945661
vt 0.275044 0.945661
vt 0.738642 0.944323
vt 0.740032 0.910853
vt 0.742179 0.912150
vt 0.740879 0.943422
vt 0.858637 0.916843
vt 0.857526 0.948020
vt 0.272598 0.913802
vt 0.159127 0.913802
vt 0.272598 0.944578
vt 0.159127 0.944578
vt 0.224001 0.963985
vt 0.224543 0.965577
vt 0.225345 0.966701
vt 0.224803 0.965100
vt 0.224321 0.966819
vt 0.224870 0.968423
vt 0.224120 0.968763
vt 0.223566 0.967162
vt 0.222375 0.966922
vt 0.222931 0.968515
vt 0.198592 0.952696
vt 0.198024 0.951317
vt 0.225407 0.967431
vt 0.224009 0.966549
vt 0.222921 0.965936
vt 0.198545 0.950555
vt 0.200135 0.950422
vt 0.199624 0.951175
vt 0.199579 0.949045
vt 0.224863 0.965827
vt 0.223463 0.964957
vt 0.223472 0.967529
vt 0.199109 0.951933
vt 0.199064 0.949798
s 0
usemtl Material.002
f 37/1/1 12/2/1 23/3/1 39/4/1
f 42/5/2 46/6/2 13/7/2 7/8/2
f 72/9/3 42/5/3 7/8/3 63/10/3
f 21/11/3 18/12/3 19/13/3 15/14/3
f 53/15/3 17/16/3 23/3/3 56/17/3
f 64/18/4 8/12/4 18/12/4 66/18/4
f 17/16/3 20/19/3 22/20/3 23/3/3
f 43/21/5 10/22/5 24/23/5 47/24/5
f 8/12/4 3/13/4 19/13/4 18/12/4
f 4/19/4 11/20/4 22/20/4 20/19/4
f 49/25/2 6/26/2 17/27/2 53/28/2
f 3/29/5 5/30/5 15/31/5 19/32/5
f 6/26/2 4/33/2 20/34/2 17/27/2
f 46/6/3 45/35/3 14/36/3 13/7/3
f 41/37/5 1/38/5 14/39/5 45/40/5
f 68/41/6 32/42/6 27/43/6 57/44/6
f 67/45/3 66/18/3 18/12/3 21/11/3
f 31/46/4 26/47/4 28/47/4 33/46/4
f 60/48/1 27/43/1 29/49/1 62/50/1
f 34/51/3 33/46/3 28/47/3 29/49/3
f 39/4/3 38/52/3 33/46/3 34/51/3
f 36/52/4 31/46/4 33/46/4 38/52/4
f 70/53/7 37/1/7 32/42/7 68/41/7
f 27/43/1 32/42/1 34/51/1 29/49/1
f 52/54/3 12/2/3 37/1/3 70/53/3
f 11/20/4 36/52/4 38/52/4 22/20/4
f 23/3/3 22/20/3 38/52/3 39/4/3
f 32/42/1 37/1/1 39/4/1 34/51/1
f 10/22/3 43/21/3 71/55/3 35/56/3
f 35/56/3 71/55/3 69/57/3 30/58/3
f 30/58/3 69/57/3 48/59/3 25/60/3
f 50/61/5 41/37/5 45/40/5 54/62/5
f 55/63/3 54/64/3 45/35/3 46/6/3
f 2/65/2 40/66/2 44/67/2 16/68/2
f 52/54/5 43/21/5 47/24/5 56/17/5
f 16/69/3 44/70/3 47/24/3 24/23/3
f 74/71/3 51/72/3 42/5/3 72/9/3
f 51/72/2 55/63/2 46/6/2 42/5/2
f 9/73/2 21/11/2 55/63/2 51/72/2
f 65/74/3 9/73/3 51/72/3 74/71/3
f 12/2/5 52/54/5 56/17/5 23/3/5
f 21/11/3 15/14/3 54/64/3 55/63/3
f 5/30/5 50/61/5 54/62/5 15/31/5
f 43/21/3 52/54/3 70/53/3 71/55/3
f 80/75/8 76/76/8 69/57/8 71/55/8
f 69/57/3 68/41/3 57/44/3 48/59/3
f 40/66/2 49/25/2 53/28/2 44/67/2
f 44/70/3 53/15/3 56/17/3 47/24/3
f 27/43/9 60/48/9 75/77/9 57/44/9
f 57/44/3 75/77/3 73/78/3 48/59/3
f 65/74/1 60/48/1 62/50/1 67/45/1
f 29/49/3 28/47/3 61/79/3 62/50/3
f 26/47/4 59/79/4 61/79/4 28/47/4
f 48/59/3 73/78/3 58/80/3 25/60/3
f 9/73/1 65/74/1 67/45/1 21/11/1
f 60/48/3 65/74/3 74/71/3 75/77/3
f 92/81/10 88/82/10 73/78/10 75/77/10
f 62/50/3 61/79/3 66/18/3 67/45/3
f 59/79/4 64/18/4 66/18/4 61/79/4
f 73/78/3 72/9/3 63/10/3 58/80/3
f 79/83/3 86/84/3 82/85/3 77/86/3
f 83/87/11 85/88/11 70/53/11 68/41/11
f 85/89/12 80/90/12 71/55/12 70/53/12
f 88/91/13 95/92/13 72/9/13 73/78/13
f 91/93/3 98/94/3 94/95/3 89/96/3
f 95/97/14 97/98/14 74/71/14 72/9/14
f 97/99/15 92/100/15 75/77/15 74/71/15
f 83/101/16 76/102/16 78/103/16 84/104/16
f 84/104/17 78/103/17 77/86/17 82/85/17
f 86/84/18 79/83/18 81/105/18 87/106/18
f 87/106/19 81/105/19 80/90/19 85/89/19
f 79/83/20 77/86/20 78/103/20 81/105/20
f 81/105/21 78/103/21 76/76/21 80/75/21
f 85/88/22 83/87/22 84/104/22 87/106/22
f 87/106/23 84/104/23 82/85/23 86/84/23
f 95/92/24 88/91/24 90/107/24 96/108/24
f 96/108/25 90/107/25 89/96/25 94/95/25
f 98/94/26 91/93/26 93/109/26 99/110/26
f 99/110/27 93/109/27 92/100/27 97/99/27
f 91/93/28 89/96/28 90/107/28 93/109/28
f 93/109/29 90/107/29 88/82/29 92/81/29
f 97/98/30 95/97/30 96/108/30 99/110/30
f 99/110/31 96/108/31 94/95/31 98/94/31
f 76/102/32 83/101/32 68/41/32 69/57/32
f 108/111/33 109/112/33 103/113/33 102/114/33
f 112/115/34 115/116/34 107/117/34 106/118/34
f 110/119/35 111/120/35 105/121/35 104/122/35
f 114/123/4 103/113/4 109/112/4 120/124/4
f 122/125/1 110/119/1 104/122/1 117/126/1
f 120/124/4 109/112/4 101/127/4 119/128/4
f 112/115/1 106/118/1 110/119/1 122/125/1
f 106/118/36 107/117/36 111/120/36 110/119/36
f 100/129/37 101/127/37 109/112/37 108/111/37
f 102/114/1 113/130/1 123/131/1 108/111/1
f 113/130/1 112/115/1 122/125/1 123/131/1
f 111/120/4 121/132/4 118/133/4 105/121/4
f 121/132/4 120/124/4 119/128/4 118/133/4
f 108/111/1 123/131/1 116/134/1 100/129/1
f 123/131/1 122/125/1 117/126/1 116/134/1
f 107/117/4 115/116/4 121/132/4 111/120/4
f 115/116/4 114/123/4 120/124/4 121/132/4
f 102/114/38 103/113/38 114/123/38 113/130/38
f 113/130/39 114/123/39 115/116/39 112/115/39
f 132/111/40 133/112/40 127/113/40 126/114/40
f 136/115/41 139/116/41 131/117/41 130/118/41
f 134/119/42 135/120/42 129/121/42 128/122/42
f 138/123/4 127/113/4 133/112/4 144/124/4
f 146/125/1 134/119/1 128/122/1 141/126/1
f 144/124/4 133/112/4 125/127/4 143/128/4
f 136/115/1 130/118/1 134/119/1 146/125/1
f 130/118/43 131/117/43 135/120/43 134/119/43
f 124/129/44 125/127/44 133/112/44 132/111/44
f 126/114/1 137/130/1 147/131/1 132/111/1
f 137/130/1 136/115/1 146/125/1 147/131/1
f 135/120/4 145/132/4 142/133/4 129/121/4
f 145/132/4 144/124/4 143/128/4 142/133/4
f 132/111/1 147/131/1 140/134/1 124/129/1
f 147/131/1 146/125/1 141/126/1 140/134/1
f 131/117/4 139/116/4 145/132/4 135/120/4
f 139/116/4 138/123/4 144/124/4 145/132/4
f 126/114/45 127/113/45 138/123/45 137/130/45
f 137/130/46 138/123/46 139/116/46 136/115/46
f 156/111/47 157/112/47 151/113/47 150/114/47
f 160/115/48 163/116/48 155/117/48 154/118/48
f 158/119/49 159/120/49 153/121/49 152/122/49
f 162/123/50 151/113/50 157/112/50 168/124/50
f 170/125/51 158/119/51 152/122/51 165/126/51
f 168/124/50 157/112/50 149/127/50 167/128/50
f 160/115/52 154/118/52 158/119/52 170/125/52
f 154/118/53 155/117/53 159/120/53 158/119/53
f 148/129/54 149/127/54 157/112/54 156/111/54
f 150/114/55 161/130/55 171/131/55 156/111/55
f 161/130/52 160/115/52 170/125/52 171/131/52
f 159/120/50 169/132/50 166/133/50 153/121/50
f 169/132/50 168/124/50 167/128/50 166/133/50
f 156/111/52 171/131/52 164/134/52 148/129/52
f 171/131/52 170/125/52 165/126/52 164/134/52
f 155/117/56 163/116/56 169/132/56 159/120/56
f 163/116/57 162/123/57 168/124/57 169/132/57
f 150/114/58 151/113/58 162/123/58 161/130/58
f 161/130/59 162/123/59 163/116/59 160/115/59
f 180/111/60 181/112/60 175/113/60 174/114/60
f 184/115/61 187/116/61 179/117/61 178/118/61
f 182/119/62 183/120/62 177/121/62 176/122/62
f 186/123/50 175/113/50 181/112/50 192/124/50
f 194/125/51 182/119/51 176/122/51 189/126/51
f 192/124/50 181/112/50 173/127/50 191/128/50
f 184/115/52 178/118/52 182/119/52 194/125/52
f 178/118/63 179/117/63 183/120/63 182/119/63
f 172/129/64 173/127/64 181/112/64 180/111/64
f 174/114/52 185/130/52 195/131/52 180/111/52
f 185/130/51 184/115/51 194/125/51 195/131/51
f 183/120/50 193/132/50 190/133/50 177/121/50
f 193/132/50 192/124/50 191/128/50 190/133/50
f 180/111/52 195/131/52 188/134/52 172/129/52
f 195/131/51 194/125/51 189/126/51 188/134/51
f 179/117/50 187/116/50 193/132/50 183/120/50
f 187/116/57 186/123/57 192/124/57 193/132/57
f 174/114/65 175/113/65 186/123/65 185/130/65
f 185/130/66 186/123/66 187/116/66 184/115/66
